# MagicaVoxel @ Ephtracy

# group
o 

# material
mtllib Book.mtl
usemtl palette

# normals
vn -1 0 0
vn 1 0 0
vn 0 0 1
vn 0 0 -1
vn 0 -1 0
vn 0 1 0

# texcoords
vt 0.779297 0.5
vt 0.958984 0.5

# verts
v -0.4 0 0.3
v -0.4 0 -0.4
v -0.4 0.1 0.2
v -0.4 0.1 -0.4
v -0.4 0.2 0.2
v -0.4 0.2 -0.4
v -0.4 0.3 0.3
v -0.4 0.3 -0.4
v -0.3 0.1 0.2
v -0.3 0.1 -0.3
v -0.3 0.2 0.2
v -0.3 0.2 -0.3
v 0.5 0.1 0.2
v 0.5 0.1 -0.3
v 0.5 0.2 0.2
v 0.5 0.2 -0.3
v 0.6 0 0.3
v 0.6 0 -0.4
v 0.6 0.1 0.2
v 0.6 0.1 -0.4
v 0.6 0.2 0.2
v 0.6 0.2 -0.4
v 0.6 0.3 0.3
v 0.6 0.3 -0.4
v -0.4 0 0.3
v -0.4 0.3 0.3
v -0.3 0 0.3
v -0.3 0.3 0.3
v -0.2 0 0.3
v -0.2 0.3 0.3
v 0.6 0 0.3
v 0.6 0.3 0.3
v -0.4 0.1 0.2
v -0.4 0.2 0.2
v -0.3 0.1 0.2
v -0.3 0.2 0.2
v 0.5 0.1 0.2
v 0.5 0.2 0.2
v 0.6 0.1 0.2
v 0.6 0.2 0.2
v -0.3 0.1 -0.3
v -0.3 0.2 -0.3
v -0.2 0.1 -0.3
v -0.2 0.2 -0.3
v 0.5 0.1 -0.3
v 0.5 0.2 -0.3
v -0.4 0 -0.4
v -0.4 0.1 -0.4
v -0.4 0.2 -0.4
v -0.4 0.3 -0.4
v -0.3 0 -0.4
v -0.3 0.1 -0.4
v -0.3 0.2 -0.4
v -0.3 0.3 -0.4
v -0.2 0 -0.4
v -0.2 0.1 -0.4
v -0.2 0.2 -0.4
v -0.2 0.3 -0.4
v 0.6 0 -0.4
v 0.6 0.1 -0.4
v 0.6 0.2 -0.4
v 0.6 0.3 -0.4
v -0.4 0 0.3
v -0.3 0 0.3
v -0.2 0 0.3
v 0.6 0 0.3
v -0.4 0 -0.4
v -0.3 0 -0.4
v -0.2 0 -0.4
v 0.6 0 -0.4
v -0.4 0.2 0.2
v -0.3 0.2 0.2
v 0.5 0.2 0.2
v 0.6 0.2 0.2
v -0.3 0.2 -0.3
v -0.2 0.2 -0.3
v 0.5 0.2 -0.3
v -0.4 0.2 -0.4
v -0.3 0.2 -0.4
v -0.2 0.2 -0.4
v 0.6 0.2 -0.4
v -0.4 0.1 0.2
v -0.3 0.1 0.2
v 0.5 0.1 0.2
v 0.6 0.1 0.2
v -0.3 0.1 -0.3
v -0.2 0.1 -0.3
v 0.5 0.1 -0.3
v -0.4 0.1 -0.4
v -0.3 0.1 -0.4
v -0.2 0.1 -0.4
v 0.6 0.1 -0.4
v -0.4 0.3 0.3
v -0.3 0.3 0.3
v -0.2 0.3 0.3
v 0.6 0.3 0.3
v -0.1 0.3 0.2
v 0.1 0.3 0.2
v 0.2 0.3 0.2
v 0.3 0.3 0.2
v 0.4 0.3 0.2
v 0.5 0.3 0.2
v 0.2 0.3 0
v 0.3 0.3 0
v 0.2 0.3 -0.1
v 0.3 0.3 -0.1
v 0.2 0.3 -0.2
v 0.3 0.3 -0.2
v -0.1 0.3 -0.3
v 0.1 0.3 -0.3
v 0.4 0.3 -0.3
v 0.5 0.3 -0.3
v -0.4 0.3 -0.4
v -0.3 0.3 -0.4
v -0.2 0.3 -0.4
v 0.6 0.3 -0.4

# faces
f 3/1/1 2/1/1 1/1/1
f 4/1/1 2/1/1 3/1/1
f 5/1/1 3/1/1 1/1/1
f 7/1/1 5/1/1 1/1/1
f 7/1/1 6/1/1 5/1/1
f 8/1/1 6/1/1 7/1/1
f 11/2/1 10/2/1 9/2/1
f 12/2/1 10/2/1 11/2/1
f 13/2/2 14/2/2 15/2/2
f 15/2/2 14/2/2 16/2/2
f 17/1/2 18/1/2 19/1/2
f 19/1/2 18/1/2 20/1/2
f 17/1/2 19/1/2 21/1/2
f 17/1/2 21/1/2 23/1/2
f 21/1/2 22/1/2 23/1/2
f 23/1/2 22/1/2 24/1/2
f 27/1/3 26/1/3 25/1/3
f 28/1/3 26/1/3 27/1/3
f 29/2/3 28/2/3 27/2/3
f 30/2/3 28/2/3 29/2/3
f 31/1/3 30/1/3 29/1/3
f 32/1/3 30/1/3 31/1/3
f 33/1/4 34/1/4 35/1/4
f 35/1/4 34/1/4 36/1/4
f 37/1/4 38/1/4 39/1/4
f 39/1/4 38/1/4 40/1/4
f 41/2/4 42/2/4 43/2/4
f 43/2/4 42/2/4 44/2/4
f 43/2/4 44/2/4 45/2/4
f 45/2/4 44/2/4 46/2/4
f 47/1/4 48/1/4 51/1/4
f 51/1/4 48/1/4 52/1/4
f 49/1/4 50/1/4 53/1/4
f 53/1/4 50/1/4 54/1/4
f 51/2/4 52/2/4 55/2/4
f 55/2/4 52/2/4 56/2/4
f 53/2/4 54/2/4 57/2/4
f 57/2/4 54/2/4 58/2/4
f 55/1/4 56/1/4 59/1/4
f 59/1/4 56/1/4 60/1/4
f 57/1/4 58/1/4 61/1/4
f 61/1/4 58/1/4 62/1/4
f 67/1/5 64/1/5 63/1/5
f 68/2/5 65/2/5 64/2/5
f 68/1/5 64/1/5 67/1/5
f 69/1/5 66/1/5 65/1/5
f 69/2/5 65/2/5 68/2/5
f 70/1/5 66/1/5 69/1/5
f 75/1/5 72/1/5 71/1/5
f 77/1/5 74/1/5 73/1/5
f 78/1/5 75/1/5 71/1/5
f 79/2/5 76/2/5 75/2/5
f 79/1/5 75/1/5 78/1/5
f 80/1/5 77/1/5 76/1/5
f 80/2/5 76/2/5 79/2/5
f 81/1/5 74/1/5 77/1/5
f 81/1/5 77/1/5 80/1/5
f 82/1/6 83/1/6 86/1/6
f 84/1/6 85/1/6 88/1/6
f 82/1/6 86/1/6 89/1/6
f 86/2/6 87/2/6 90/2/6
f 89/1/6 86/1/6 90/1/6
f 87/1/6 88/1/6 91/1/6
f 90/2/6 87/2/6 91/2/6
f 88/1/6 85/1/6 92/1/6
f 91/1/6 88/1/6 92/1/6
f 95/1/6 96/1/6 97/1/6
f 97/1/6 96/1/6 98/1/6
f 98/1/6 96/1/6 99/1/6
f 99/1/6 96/1/6 100/1/6
f 100/1/6 96/1/6 101/1/6
f 101/1/6 96/1/6 102/1/6
f 98/1/6 99/1/6 103/1/6
f 99/2/6 100/2/6 103/2/6
f 100/1/6 101/1/6 104/1/6
f 103/2/6 100/2/6 104/2/6
f 98/1/6 103/1/6 105/1/6
f 103/1/6 104/1/6 105/1/6
f 104/1/6 101/1/6 106/1/6
f 105/1/6 104/1/6 106/1/6
f 98/1/6 105/1/6 107/1/6
f 105/2/6 106/2/6 107/2/6
f 106/1/6 101/1/6 108/1/6
f 107/2/6 106/2/6 108/2/6
f 95/1/6 97/1/6 109/1/6
f 97/2/6 98/2/6 109/2/6
f 107/1/6 108/1/6 110/1/6
f 109/2/6 98/2/6 110/2/6
f 98/1/6 107/1/6 110/1/6
f 108/1/6 101/1/6 111/1/6
f 110/1/6 108/1/6 111/1/6
f 101/2/6 102/2/6 111/2/6
f 102/1/6 96/1/6 112/1/6
f 111/2/6 102/2/6 112/2/6
f 93/1/6 94/1/6 113/1/6
f 94/2/6 95/2/6 114/2/6
f 113/1/6 94/1/6 114/1/6
f 109/1/6 110/1/6 115/1/6
f 114/2/6 95/2/6 115/2/6
f 95/1/6 109/1/6 115/1/6
f 111/1/6 112/1/6 115/1/6
f 110/1/6 111/1/6 115/1/6
f 112/1/6 96/1/6 116/1/6
f 115/1/6 112/1/6 116/1/6
