# MagicaVoxel @ Ephtracy

# group
o 

# material
mtllib Carpet.mtl
usemtl palette

# normals
vn -1 0 0
vn 1 0 0
vn 0 0 1
vn 0 0 -1
vn 0 -1 0
vn 0 1 0

# texcoords
vt 0.669922 0.5
vt 0.869141 0.5
vt 0.947266 0.5

# verts
v -8.9 0 4.9
v -8.9 0 2.9
v -8.9 0 0.9
v -8.9 0 -1.1
v -8.9 0 -3.1
v -8.9 0 -5.1
v -8.9 0.1 4.9
v -8.9 0.1 2.9
v -8.9 0.1 0.9
v -8.9 0.1 -1.1
v -8.9 0.1 -3.1
v -8.9 0.1 -5.1
v 9.1 0 4.9
v 9.1 0 2.9
v 9.1 0 0.9
v 9.1 0 -1.1
v 9.1 0 -3.1
v 9.1 0 -5.1
v 9.1 0.1 4.9
v 9.1 0.1 2.9
v 9.1 0.1 0.9
v 9.1 0.1 -1.1
v 9.1 0.1 -3.1
v 9.1 0.1 -5.1
v -8.9 0 4.9
v -8.9 0.1 4.9
v -6.9 0 4.9
v -6.9 0.1 4.9
v -4.9 0 4.9
v -4.9 0.1 4.9
v -2.9 0 4.9
v -2.9 0.1 4.9
v -0.900001 0 4.9
v -0.900001 0.1 4.9
v 1.1 0 4.9
v 1.1 0.1 4.9
v 3.1 0 4.9
v 3.1 0.1 4.9
v 5.1 0 4.9
v 5.1 0.1 4.9
v 7.1 0 4.9
v 7.1 0.1 4.9
v 9.1 0 4.9
v 9.1 0.1 4.9
v -8.9 0 -5.1
v -8.9 0.1 -5.1
v -6.9 0 -5.1
v -6.9 0.1 -5.1
v -4.9 0 -5.1
v -4.9 0.1 -5.1
v -2.9 0 -5.1
v -2.9 0.1 -5.1
v -0.900001 0 -5.1
v -0.900001 0.1 -5.1
v 1.1 0 -5.1
v 1.1 0.1 -5.1
v 3.1 0 -5.1
v 3.1 0.1 -5.1
v 5.1 0 -5.1
v 5.1 0.1 -5.1
v 7.1 0 -5.1
v 7.1 0.1 -5.1
v 9.1 0 -5.1
v 9.1 0.1 -5.1
v -8.9 0 4.9
v -6.9 0 4.9
v -4.9 0 4.9
v -2.9 0 4.9
v -0.900001 0 4.9
v 1.1 0 4.9
v 3.1 0 4.9
v 5.1 0 4.9
v 7.1 0 4.9
v 9.1 0 4.9
v -8.9 0 2.9
v -6.9 0 2.9
v -4.9 0 2.9
v -2.9 0 2.9
v -0.900001 0 2.9
v 1.1 0 2.9
v 3.1 0 2.9
v 5.1 0 2.9
v 7.1 0 2.9
v 9.1 0 2.9
v 6 0 2.8
v 6.5 0 2.8
v 5.8 0 2.7
v 6 0 2.7
v 6.5 0 2.7
v 6.6 0 2.7
v 5.6 0 2.6
v 5.8 0 2.6
v 6.6 0 2.6
v 6.7 0 2.6
v 5.4 0 2.5
v 5.6 0 2.5
v 6.7 0 2.5
v 6.9 0 2.5
v 5.3 0 2.4
v 5.4 0 2.4
v 6.9 0 2.4
v 7 0 2.4
v 5.1 0 2.3
v 5.3 0 2.3
v 7 0 2.3
v 7.1 0 2.3
v 4.9 0 2.2
v 5.1 0 2.2
v 7.1 0 2.2
v 7.2 0 2.2
v 4.8 0 2.1
v 4.9 0 2.1
v 4.6 0 2
v 4.8 0 2
v 4.5 0 1.9
v 4.6 0 1.9
v 7.1 0 1.9
v 7.2 0 1.9
v 4.4 0 1.8
v 4.5 0 1.8
v 4.3 0 1.5
v 4.4 0 1.5
v -8.9 0 0.9
v -6.9 0 0.9
v -4.9 0 0.9
v -2.9 0 0.9
v -0.900001 0 0.9
v 1.1 0 0.9
v 3.1 0 0.9
v 4.2 0 0.9
v 4.3 0 0.9
v 7 0 0.9
v 7.1 0 0.9
v 9.1 0 0.9
v 6.9 0 0.8
v 7 0 0.8
v 4.1 0 0.6
v 4.2 0 0.6
v 6.8 0 0.6
v 6.9 0 0.6
v 6.7 0 0.4
v 6.8 0 0.4
v 4 0 0.3
v 4.1 0 0.3
v 6.6 0 0.0999999
v 6.7 0 0.0999999
v 4 0 0
v 4.1 0 0
v 6.5 0 0
v 6.6 0 0
v 6.9 0 0
v 7 0 0
v 4.1 0 -0.0999999
v 4.2 0 -0.0999999
v 6.4 0 -0.0999999
v 6.5 0 -0.0999999
v 6.9 0 -0.0999999
v 7 0 -0.0999999
v 7.2 0 -0.0999999
v 7.4 0 -0.0999999
v 4.2 0 -0.2
v 4.4 0 -0.2
v 6.2 0 -0.2
v 6.4 0 -0.2
v 7.1 0 -0.2
v 7.2 0 -0.2
v 7.4 0 -0.2
v 7.5 0 -0.2
v 4.4 0 -0.3
v 4.6 0 -0.3
v 6 0 -0.3
v 6.2 0 -0.3
v 4.6 0 -0.4
v 4.8 0 -0.4
v 5.8 0 -0.4
v 6 0 -0.4
v 7.1 0 -0.4
v 7.2 0 -0.4
v 7.4 0 -0.4
v 7.5 0 -0.4
v 4.8 0 -0.5
v 4.9 0 -0.5
v 5.7 0 -0.5
v 5.8 0 -0.5
v 7.2 0 -0.5
v 7.4 0 -0.5
v 4.9 0 -0.6
v 5.1 0 -0.6
v 5.6 0 -0.6
v 5.7 0 -0.6
v 5.1 0 -0.7
v 5.3 0 -0.7
v 5.4 0 -0.7
v 5.6 0 -0.7
v 5.3 0 -0.8
v 5.4 0 -0.8
v -8.9 0 -1.1
v -6.9 0 -1.1
v -4.9 0 -1.1
v -2.9 0 -1.1
v -0.900001 0 -1.1
v 1.1 0 -1.1
v 3.1 0 -1.1
v 5.1 0 -1.1
v 7.1 0 -1.1
v 9.1 0 -1.1
v -8.9 0 -3.1
v -6.9 0 -3.1
v -4.9 0 -3.1
v -2.9 0 -3.1
v -0.900001 0 -3.1
v 1.1 0 -3.1
v 3.1 0 -3.1
v 5.1 0 -3.1
v 7.1 0 -3.1
v 9.1 0 -3.1
v -8.9 0 -5.1
v -6.9 0 -5.1
v -4.9 0 -5.1
v -2.9 0 -5.1
v -0.900001 0 -5.1
v 1.1 0 -5.1
v 3.1 0 -5.1
v 5.1 0 -5.1
v 7.1 0 -5.1
v 9.1 0 -5.1
v -8.9 0.1 4.9
v -6.9 0.1 4.9
v -4.9 0.1 4.9
v -2.9 0.1 4.9
v -0.900001 0.1 4.9
v 1.1 0.1 4.9
v 3.1 0.1 4.9
v 5.1 0.1 4.9
v 7.1 0.1 4.9
v 9.1 0.1 4.9
v -8.9 0.1 2.9
v -6.9 0.1 2.9
v -4.9 0.1 2.9
v -2.9 0.1 2.9
v -0.900001 0.1 2.9
v 1.1 0.1 2.9
v 3.1 0.1 2.9
v 5.1 0.1 2.9
v 7.1 0.1 2.9
v 9.1 0.1 2.9
v 6 0.1 2.8
v 6.5 0.1 2.8
v 5.8 0.1 2.7
v 6 0.1 2.7
v 6.5 0.1 2.7
v 6.6 0.1 2.7
v 5.6 0.1 2.6
v 5.8 0.1 2.6
v 6.6 0.1 2.6
v 6.7 0.1 2.6
v 5.4 0.1 2.5
v 5.6 0.1 2.5
v 6.7 0.1 2.5
v 6.9 0.1 2.5
v 5.3 0.1 2.4
v 5.4 0.1 2.4
v 6.9 0.1 2.4
v 7 0.1 2.4
v 5.1 0.1 2.3
v 5.3 0.1 2.3
v 7 0.1 2.3
v 7.1 0.1 2.3
v 4.9 0.1 2.2
v 5.1 0.1 2.2
v 7.1 0.1 2.2
v 7.2 0.1 2.2
v 4.8 0.1 2.1
v 4.9 0.1 2.1
v 4.6 0.1 2
v 4.8 0.1 2
v 4.5 0.1 1.9
v 4.6 0.1 1.9
v 7.1 0.1 1.9
v 7.2 0.1 1.9
v 4.4 0.1 1.8
v 4.5 0.1 1.8
v 4.3 0.1 1.5
v 4.4 0.1 1.5
v -8.9 0.1 0.9
v -6.9 0.1 0.9
v -4.9 0.1 0.9
v -2.9 0.1 0.9
v -0.900001 0.1 0.9
v 1.1 0.1 0.9
v 3.1 0.1 0.9
v 4.2 0.1 0.9
v 4.3 0.1 0.9
v 7 0.1 0.9
v 7.1 0.1 0.9
v 9.1 0.1 0.9
v 6.9 0.1 0.8
v 7 0.1 0.8
v 4.1 0.1 0.6
v 4.2 0.1 0.6
v 6.8 0.1 0.6
v 6.9 0.1 0.6
v 6.7 0.1 0.4
v 6.8 0.1 0.4
v 4 0.1 0.3
v 4.1 0.1 0.3
v 6.6 0.1 0.0999999
v 6.7 0.1 0.0999999
v 4 0.1 0
v 4.1 0.1 0
v 6.5 0.1 0
v 6.6 0.1 0
v 6.9 0.1 0
v 7 0.1 0
v 4.1 0.1 -0.0999999
v 4.2 0.1 -0.0999999
v 6.4 0.1 -0.0999999
v 6.5 0.1 -0.0999999
v 6.9 0.1 -0.0999999
v 7 0.1 -0.0999999
v 7.2 0.1 -0.0999999
v 7.4 0.1 -0.0999999
v 4.2 0.1 -0.2
v 4.4 0.1 -0.2
v 6.2 0.1 -0.2
v 6.4 0.1 -0.2
v 7.1 0.1 -0.2
v 7.2 0.1 -0.2
v 7.4 0.1 -0.2
v 7.5 0.1 -0.2
v 4.4 0.1 -0.3
v 4.6 0.1 -0.3
v 6 0.1 -0.3
v 6.2 0.1 -0.3
v 4.6 0.1 -0.4
v 4.8 0.1 -0.4
v 5.8 0.1 -0.4
v 6 0.1 -0.4
v 7.1 0.1 -0.4
v 7.2 0.1 -0.4
v 7.4 0.1 -0.4
v 7.5 0.1 -0.4
v 4.8 0.1 -0.5
v 4.9 0.1 -0.5
v 5.7 0.1 -0.5
v 5.8 0.1 -0.5
v 7.2 0.1 -0.5
v 7.4 0.1 -0.5
v 4.9 0.1 -0.6
v 5.1 0.1 -0.6
v 5.6 0.1 -0.6
v 5.7 0.1 -0.6
v 5.1 0.1 -0.7
v 5.3 0.1 -0.7
v 5.4 0.1 -0.7
v 5.6 0.1 -0.7
v 5.3 0.1 -0.8
v 5.4 0.1 -0.8
v -8.9 0.1 -1.1
v -6.9 0.1 -1.1
v -4.9 0.1 -1.1
v -2.9 0.1 -1.1
v -0.900001 0.1 -1.1
v 1.1 0.1 -1.1
v 3.1 0.1 -1.1
v 5.1 0.1 -1.1
v 7.1 0.1 -1.1
v 9.1 0.1 -1.1
v -8.9 0.1 -3.1
v -6.9 0.1 -3.1
v -4.9 0.1 -3.1
v -2.9 0.1 -3.1
v -0.900001 0.1 -3.1
v 1.1 0.1 -3.1
v 3.1 0.1 -3.1
v 5.1 0.1 -3.1
v 7.1 0.1 -3.1
v 9.1 0.1 -3.1
v -8.9 0.1 -5.1
v -6.9 0.1 -5.1
v -4.9 0.1 -5.1
v -2.9 0.1 -5.1
v -0.900001 0.1 -5.1
v 1.1 0.1 -5.1
v 3.1 0.1 -5.1
v 5.1 0.1 -5.1
v 7.1 0.1 -5.1
v 9.1 0.1 -5.1

# faces
f 7/3/1 2/3/1 1/3/1
f 8/1/1 3/1/1 2/1/1
f 8/3/1 2/3/1 7/3/1
f 9/3/1 4/3/1 3/3/1
f 9/1/1 3/1/1 8/1/1
f 10/1/1 5/1/1 4/1/1
f 10/3/1 4/3/1 9/3/1
f 11/3/1 6/3/1 5/3/1
f 11/1/1 5/1/1 10/1/1
f 12/3/1 6/3/1 11/3/1
f 13/3/2 14/3/2 19/3/2
f 14/1/2 15/1/2 20/1/2
f 19/3/2 14/3/2 20/3/2
f 15/3/2 16/3/2 21/3/2
f 20/1/2 15/1/2 21/1/2
f 16/1/2 17/1/2 22/1/2
f 21/3/2 16/3/2 22/3/2
f 17/3/2 18/3/2 23/3/2
f 22/1/2 17/1/2 23/1/2
f 23/3/2 18/3/2 24/3/2
f 27/3/3 26/3/3 25/3/3
f 28/3/3 26/3/3 27/3/3
f 29/1/3 28/1/3 27/1/3
f 30/1/3 28/1/3 29/1/3
f 31/3/3 30/3/3 29/3/3
f 32/3/3 30/3/3 31/3/3
f 33/1/3 32/1/3 31/1/3
f 34/1/3 32/1/3 33/1/3
f 35/3/3 34/3/3 33/3/3
f 36/3/3 34/3/3 35/3/3
f 37/1/3 36/1/3 35/1/3
f 38/1/3 36/1/3 37/1/3
f 39/3/3 38/3/3 37/3/3
f 40/3/3 38/3/3 39/3/3
f 41/1/3 40/1/3 39/1/3
f 42/1/3 40/1/3 41/1/3
f 43/3/3 42/3/3 41/3/3
f 44/3/3 42/3/3 43/3/3
f 45/3/4 46/3/4 47/3/4
f 47/3/4 46/3/4 48/3/4
f 47/1/4 48/1/4 49/1/4
f 49/1/4 48/1/4 50/1/4
f 49/3/4 50/3/4 51/3/4
f 51/3/4 50/3/4 52/3/4
f 51/1/4 52/1/4 53/1/4
f 53/1/4 52/1/4 54/1/4
f 53/3/4 54/3/4 55/3/4
f 55/3/4 54/3/4 56/3/4
f 55/1/4 56/1/4 57/1/4
f 57/1/4 56/1/4 58/1/4
f 57/3/4 58/3/4 59/3/4
f 59/3/4 58/3/4 60/3/4
f 59/1/4 60/1/4 61/1/4
f 61/1/4 60/1/4 62/1/4
f 61/3/4 62/3/4 63/3/4
f 63/3/4 62/3/4 64/3/4
f 75/3/5 66/3/5 65/3/5
f 76/1/5 67/1/5 66/1/5
f 76/3/5 66/3/5 75/3/5
f 77/3/5 68/3/5 67/3/5
f 77/1/5 67/1/5 76/1/5
f 78/1/5 69/1/5 68/1/5
f 78/3/5 68/3/5 77/3/5
f 79/3/5 70/3/5 69/3/5
f 79/1/5 69/1/5 78/1/5
f 80/1/5 71/1/5 70/1/5
f 80/3/5 70/3/5 79/3/5
f 81/3/5 72/3/5 71/3/5
f 81/1/5 71/1/5 80/1/5
f 82/1/5 73/1/5 72/1/5
f 82/3/5 72/3/5 81/3/5
f 83/3/5 74/3/5 73/3/5
f 83/1/5 73/1/5 82/1/5
f 84/3/5 74/3/5 83/3/5
f 85/3/5 83/3/5 82/3/5
f 86/3/5 83/3/5 85/3/5
f 87/3/5 85/3/5 82/3/5
f 88/2/5 86/2/5 85/2/5
f 88/3/5 85/3/5 87/3/5
f 89/3/5 83/3/5 86/3/5
f 89/2/5 86/2/5 88/2/5
f 90/3/5 83/3/5 89/3/5
f 91/3/5 87/3/5 82/3/5
f 92/2/5 88/2/5 87/2/5
f 92/3/5 87/3/5 91/3/5
f 92/2/5 89/2/5 88/2/5
f 92/2/5 90/2/5 89/2/5
f 93/3/5 83/3/5 90/3/5
f 93/2/5 90/2/5 92/2/5
f 94/3/5 83/3/5 93/3/5
f 95/3/5 91/3/5 82/3/5
f 96/2/5 92/2/5 91/2/5
f 96/3/5 91/3/5 95/3/5
f 96/2/5 93/2/5 92/2/5
f 96/2/5 94/2/5 93/2/5
f 97/3/5 83/3/5 94/3/5
f 97/2/5 94/2/5 96/2/5
f 98/3/5 83/3/5 97/3/5
f 99/3/5 95/3/5 82/3/5
f 100/2/5 96/2/5 95/2/5
f 100/3/5 95/3/5 99/3/5
f 100/2/5 97/2/5 96/2/5
f 100/2/5 98/2/5 97/2/5
f 101/3/5 83/3/5 98/3/5
f 101/2/5 98/2/5 100/2/5
f 102/3/5 83/3/5 101/3/5
f 103/1/5 82/1/5 81/1/5
f 103/3/5 99/3/5 82/3/5
f 104/2/5 102/2/5 101/2/5
f 104/3/5 99/3/5 103/3/5
f 104/2/5 100/2/5 99/2/5
f 104/2/5 101/2/5 100/2/5
f 105/3/5 83/3/5 102/3/5
f 105/2/5 102/2/5 104/2/5
f 106/1/5 84/1/5 83/1/5
f 106/3/5 83/3/5 105/3/5
f 107/1/5 103/1/5 81/1/5
f 108/2/5 104/2/5 103/2/5
f 108/1/5 103/1/5 107/1/5
f 108/2/5 105/2/5 104/2/5
f 108/2/5 106/2/5 105/2/5
f 109/1/5 84/1/5 106/1/5
f 109/2/5 106/2/5 108/2/5
f 110/1/5 84/1/5 109/1/5
f 111/1/5 107/1/5 81/1/5
f 112/2/5 108/2/5 107/2/5
f 112/1/5 107/1/5 111/1/5
f 112/2/5 109/2/5 108/2/5
f 112/2/5 110/2/5 109/2/5
f 113/1/5 111/1/5 81/1/5
f 114/2/5 112/2/5 111/2/5
f 114/1/5 111/1/5 113/1/5
f 115/1/5 113/1/5 81/1/5
f 116/2/5 114/2/5 113/2/5
f 116/1/5 113/1/5 115/1/5
f 117/2/5 110/2/5 112/2/5
f 117/2/5 114/2/5 116/2/5
f 117/2/5 112/2/5 114/2/5
f 118/1/5 84/1/5 110/1/5
f 118/2/5 110/2/5 117/2/5
f 119/1/5 115/1/5 81/1/5
f 120/2/5 117/2/5 116/2/5
f 120/1/5 115/1/5 119/1/5
f 120/2/5 116/2/5 115/2/5
f 121/1/5 119/1/5 81/1/5
f 122/2/5 120/2/5 119/2/5
f 122/1/5 119/1/5 121/1/5
f 123/1/5 76/1/5 75/1/5
f 124/3/5 77/3/5 76/3/5
f 124/1/5 76/1/5 123/1/5
f 125/1/5 78/1/5 77/1/5
f 125/3/5 77/3/5 124/3/5
f 126/3/5 79/3/5 78/3/5
f 126/1/5 78/1/5 125/1/5
f 127/1/5 80/1/5 79/1/5
f 127/3/5 79/3/5 126/3/5
f 128/3/5 81/3/5 80/3/5
f 128/1/5 80/1/5 127/1/5
f 129/1/5 121/1/5 81/1/5
f 129/3/5 81/3/5 128/3/5
f 130/1/5 121/1/5 129/1/5
f 131/2/5 122/2/5 121/2/5
f 131/1/5 121/1/5 130/1/5
f 132/2/5 117/2/5 120/2/5
f 132/2/5 122/2/5 131/2/5
f 132/2/5 120/2/5 122/2/5
f 133/1/5 118/1/5 117/1/5
f 133/2/5 117/2/5 132/2/5
f 134/1/5 84/1/5 118/1/5
f 134/1/5 118/1/5 133/1/5
f 135/2/5 131/2/5 130/2/5
f 135/2/5 132/2/5 131/2/5
f 136/1/5 133/1/5 132/1/5
f 136/2/5 132/2/5 135/2/5
f 137/3/5 130/3/5 129/3/5
f 138/2/5 135/2/5 130/2/5
f 138/3/5 130/3/5 137/3/5
f 139/2/5 135/2/5 138/2/5
f 140/1/5 136/1/5 135/1/5
f 140/2/5 135/2/5 139/2/5
f 141/2/5 139/2/5 138/2/5
f 141/2/5 138/2/5 137/2/5
f 142/1/5 140/1/5 139/1/5
f 142/2/5 139/2/5 141/2/5
f 143/3/5 137/3/5 129/3/5
f 144/2/5 141/2/5 137/2/5
f 144/3/5 137/3/5 143/3/5
f 145/2/5 144/2/5 143/2/5
f 145/2/5 141/2/5 144/2/5
f 146/1/5 142/1/5 141/1/5
f 146/2/5 141/2/5 145/2/5
f 147/3/5 143/3/5 129/3/5
f 147/2/5 145/2/5 143/2/5
f 148/2/5 145/2/5 147/2/5
f 149/2/5 145/2/5 148/2/5
f 150/1/5 146/1/5 145/1/5
f 150/2/5 145/2/5 149/2/5
f 151/1/5 140/1/5 142/1/5
f 151/1/5 146/1/5 150/1/5
f 151/1/5 136/1/5 140/1/5
f 151/1/5 142/1/5 146/1/5
f 152/1/5 133/1/5 136/1/5
f 152/1/5 136/1/5 151/1/5
f 153/3/5 148/3/5 147/3/5
f 153/2/5 149/2/5 148/2/5
f 154/2/5 149/2/5 153/2/5
f 155/2/5 149/2/5 154/2/5
f 156/1/5 150/1/5 149/1/5
f 156/2/5 149/2/5 155/2/5
f 156/1/5 151/1/5 150/1/5
f 157/2/5 152/2/5 151/2/5
f 157/1/5 151/1/5 156/1/5
f 158/1/5 133/1/5 152/1/5
f 158/2/5 152/2/5 157/2/5
f 159/3/5 134/3/5 133/3/5
f 160/3/5 134/3/5 159/3/5
f 161/2/5 155/2/5 154/2/5
f 161/3/5 154/3/5 153/3/5
f 162/2/5 155/2/5 161/2/5
f 163/2/5 155/2/5 162/2/5
f 164/1/5 157/1/5 156/1/5
f 164/2/5 155/2/5 163/2/5
f 164/1/5 156/1/5 155/1/5
f 164/1/5 158/1/5 157/1/5
f 165/1/5 133/1/5 158/1/5
f 165/1/5 158/1/5 164/1/5
f 165/3/5 159/3/5 133/3/5
f 166/2/5 160/2/5 159/2/5
f 166/3/5 159/3/5 165/3/5
f 167/3/5 134/3/5 160/3/5
f 167/2/5 160/2/5 166/2/5
f 168/3/5 134/3/5 167/3/5
f 169/2/5 163/2/5 162/2/5
f 169/3/5 162/3/5 161/3/5
f 170/2/5 163/2/5 169/2/5
f 171/2/5 163/2/5 170/2/5
f 172/1/5 164/1/5 163/1/5
f 172/2/5 163/2/5 171/2/5
f 172/1/5 165/1/5 164/1/5
f 173/2/5 171/2/5 170/2/5
f 173/3/5 170/3/5 169/3/5
f 174/2/5 171/2/5 173/2/5
f 175/2/5 171/2/5 174/2/5
f 176/1/5 172/1/5 171/1/5
f 176/2/5 171/2/5 175/2/5
f 177/1/5 165/1/5 172/1/5
f 177/1/5 172/1/5 176/1/5
f 177/2/5 166/2/5 165/2/5
f 177/2/5 168/2/5 167/2/5
f 177/2/5 167/2/5 166/2/5
f 178/2/5 168/2/5 177/2/5
f 179/2/5 168/2/5 178/2/5
f 180/3/5 134/3/5 168/3/5
f 180/2/5 168/2/5 179/2/5
f 181/3/5 174/3/5 173/3/5
f 181/2/5 175/2/5 174/2/5
f 182/2/5 175/2/5 181/2/5
f 183/2/5 175/2/5 182/2/5
f 184/1/5 176/1/5 175/1/5
f 184/2/5 175/2/5 183/2/5
f 184/1/5 177/1/5 176/1/5
f 185/2/5 179/2/5 178/2/5
f 185/3/5 178/3/5 177/3/5
f 186/3/5 180/3/5 179/3/5
f 186/2/5 179/2/5 185/2/5
f 187/2/5 183/2/5 182/2/5
f 187/3/5 182/3/5 181/3/5
f 188/2/5 183/2/5 187/2/5
f 189/2/5 183/2/5 188/2/5
f 190/1/5 184/1/5 183/1/5
f 190/2/5 183/2/5 189/2/5
f 191/2/5 189/2/5 188/2/5
f 191/3/5 188/3/5 187/3/5
f 192/2/5 189/2/5 191/2/5
f 193/2/5 189/2/5 192/2/5
f 194/1/5 190/1/5 189/1/5
f 194/2/5 189/2/5 193/2/5
f 195/2/5 193/2/5 192/2/5
f 195/1/5 192/1/5 191/1/5
f 196/1/5 194/1/5 193/1/5
f 196/2/5 193/2/5 195/2/5
f 197/3/5 124/3/5 123/3/5
f 198/1/5 125/1/5 124/1/5
f 198/3/5 124/3/5 197/3/5
f 199/3/5 126/3/5 125/3/5
f 199/1/5 125/1/5 198/1/5
f 200/1/5 127/1/5 126/1/5
f 200/3/5 126/3/5 199/3/5
f 201/3/5 128/3/5 127/3/5
f 201/1/5 127/1/5 200/1/5
f 202/1/5 129/1/5 128/1/5
f 202/3/5 128/3/5 201/3/5
f 203/3/5 147/3/5 129/3/5
f 203/1/5 129/1/5 202/1/5
f 203/3/5 173/3/5 169/3/5
f 203/3/5 153/3/5 147/3/5
f 203/3/5 161/3/5 153/3/5
f 203/3/5 191/3/5 187/3/5
f 203/3/5 169/3/5 161/3/5
f 203/3/5 187/3/5 181/3/5
f 203/3/5 181/3/5 173/3/5
f 204/1/5 196/1/5 195/1/5
f 204/3/5 191/3/5 203/3/5
f 204/1/5 195/1/5 191/1/5
f 205/1/5 194/1/5 196/1/5
f 205/1/5 196/1/5 204/1/5
f 205/3/5 185/3/5 177/3/5
f 205/1/5 184/1/5 190/1/5
f 205/1/5 190/1/5 194/1/5
f 205/3/5 186/3/5 185/3/5
f 205/1/5 177/1/5 184/1/5
f 206/3/5 180/3/5 186/3/5
f 206/3/5 186/3/5 205/3/5
f 206/3/5 134/3/5 180/3/5
f 207/1/5 198/1/5 197/1/5
f 208/3/5 199/3/5 198/3/5
f 208/1/5 198/1/5 207/1/5
f 209/1/5 200/1/5 199/1/5
f 209/3/5 199/3/5 208/3/5
f 210/3/5 201/3/5 200/3/5
f 210/1/5 200/1/5 209/1/5
f 211/1/5 202/1/5 201/1/5
f 211/3/5 201/3/5 210/3/5
f 212/3/5 203/3/5 202/3/5
f 212/1/5 202/1/5 211/1/5
f 213/1/5 204/1/5 203/1/5
f 213/3/5 203/3/5 212/3/5
f 214/3/5 205/3/5 204/3/5
f 214/1/5 204/1/5 213/1/5
f 215/1/5 206/1/5 205/1/5
f 215/3/5 205/3/5 214/3/5
f 216/1/5 206/1/5 215/1/5
f 217/3/5 208/3/5 207/3/5
f 218/1/5 209/1/5 208/1/5
f 218/3/5 208/3/5 217/3/5
f 219/3/5 210/3/5 209/3/5
f 219/1/5 209/1/5 218/1/5
f 220/1/5 211/1/5 210/1/5
f 220/3/5 210/3/5 219/3/5
f 221/3/5 212/3/5 211/3/5
f 221/1/5 211/1/5 220/1/5
f 222/1/5 213/1/5 212/1/5
f 222/3/5 212/3/5 221/3/5
f 223/3/5 214/3/5 213/3/5
f 223/1/5 213/1/5 222/1/5
f 224/1/5 215/1/5 214/1/5
f 224/3/5 214/3/5 223/3/5
f 225/3/5 216/3/5 215/3/5
f 225/1/5 215/1/5 224/1/5
f 226/3/5 216/3/5 225/3/5
f 227/3/6 228/3/6 237/3/6
f 228/1/6 229/1/6 238/1/6
f 237/3/6 228/3/6 238/3/6
f 229/3/6 230/3/6 239/3/6
f 238/1/6 229/1/6 239/1/6
f 230/1/6 231/1/6 240/1/6
f 239/3/6 230/3/6 240/3/6
f 231/3/6 232/3/6 241/3/6
f 240/1/6 231/1/6 241/1/6
f 232/1/6 233/1/6 242/1/6
f 241/3/6 232/3/6 242/3/6
f 233/3/6 234/3/6 243/3/6
f 242/1/6 233/1/6 243/1/6
f 234/1/6 235/1/6 244/1/6
f 243/3/6 234/3/6 244/3/6
f 235/3/6 236/3/6 245/3/6
f 244/1/6 235/1/6 245/1/6
f 245/3/6 236/3/6 246/3/6
f 244/3/6 245/3/6 247/3/6
f 247/3/6 245/3/6 248/3/6
f 244/3/6 247/3/6 249/3/6
f 247/2/6 248/2/6 250/2/6
f 249/3/6 247/3/6 250/3/6
f 248/3/6 245/3/6 251/3/6
f 250/2/6 248/2/6 251/2/6
f 251/3/6 245/3/6 252/3/6
f 244/3/6 249/3/6 253/3/6
f 249/2/6 250/2/6 254/2/6
f 253/3/6 249/3/6 254/3/6
f 250/2/6 251/2/6 254/2/6
f 251/2/6 252/2/6 254/2/6
f 252/3/6 245/3/6 255/3/6
f 254/2/6 252/2/6 255/2/6
f 255/3/6 245/3/6 256/3/6
f 244/3/6 253/3/6 257/3/6
f 253/2/6 254/2/6 258/2/6
f 257/3/6 253/3/6 258/3/6
f 254/2/6 255/2/6 258/2/6
f 255/2/6 256/2/6 258/2/6
f 256/3/6 245/3/6 259/3/6
f 258/2/6 256/2/6 259/2/6
f 259/3/6 245/3/6 260/3/6
f 244/3/6 257/3/6 261/3/6
f 257/2/6 258/2/6 262/2/6
f 261/3/6 257/3/6 262/3/6
f 258/2/6 259/2/6 262/2/6
f 259/2/6 260/2/6 262/2/6
f 260/3/6 245/3/6 263/3/6
f 262/2/6 260/2/6 263/2/6
f 263/3/6 245/3/6 264/3/6
f 243/1/6 244/1/6 265/1/6
f 244/3/6 261/3/6 265/3/6
f 263/2/6 264/2/6 266/2/6
f 265/3/6 261/3/6 266/3/6
f 261/2/6 262/2/6 266/2/6
f 262/2/6 263/2/6 266/2/6
f 264/3/6 245/3/6 267/3/6
f 266/2/6 264/2/6 267/2/6
f 245/1/6 246/1/6 268/1/6
f 267/3/6 245/3/6 268/3/6
f 243/1/6 265/1/6 269/1/6
f 265/2/6 266/2/6 270/2/6
f 269/1/6 265/1/6 270/1/6
f 266/2/6 267/2/6 270/2/6
f 267/2/6 268/2/6 270/2/6
f 268/1/6 246/1/6 271/1/6
f 270/2/6 268/2/6 271/2/6
f 271/1/6 246/1/6 272/1/6
f 243/1/6 269/1/6 273/1/6
f 269/2/6 270/2/6 274/2/6
f 273/1/6 269/1/6 274/1/6
f 270/2/6 271/2/6 274/2/6
f 271/2/6 272/2/6 274/2/6
f 243/1/6 273/1/6 275/1/6
f 273/2/6 274/2/6 276/2/6
f 275/1/6 273/1/6 276/1/6
f 243/1/6 275/1/6 277/1/6
f 275/2/6 276/2/6 278/2/6
f 277/1/6 275/1/6 278/1/6
f 274/2/6 272/2/6 279/2/6
f 278/2/6 276/2/6 279/2/6
f 276/2/6 274/2/6 279/2/6
f 272/1/6 246/1/6 280/1/6
f 279/2/6 272/2/6 280/2/6
f 243/1/6 277/1/6 281/1/6
f 278/2/6 279/2/6 282/2/6
f 281/1/6 277/1/6 282/1/6
f 277/2/6 278/2/6 282/2/6
f 243/1/6 281/1/6 283/1/6
f 281/2/6 282/2/6 284/2/6
f 283/1/6 281/1/6 284/1/6
f 237/1/6 238/1/6 285/1/6
f 238/3/6 239/3/6 286/3/6
f 285/1/6 238/1/6 286/1/6
f 239/1/6 240/1/6 287/1/6
f 286/3/6 239/3/6 287/3/6
f 240/3/6 241/3/6 288/3/6
f 287/1/6 240/1/6 288/1/6
f 241/1/6 242/1/6 289/1/6
f 288/3/6 241/3/6 289/3/6
f 242/3/6 243/3/6 290/3/6
f 289/1/6 242/1/6 290/1/6
f 243/1/6 283/1/6 291/1/6
f 290/3/6 243/3/6 291/3/6
f 291/1/6 283/1/6 292/1/6
f 283/2/6 284/2/6 293/2/6
f 292/1/6 283/1/6 293/1/6
f 282/2/6 279/2/6 294/2/6
f 293/2/6 284/2/6 294/2/6
f 284/2/6 282/2/6 294/2/6
f 279/1/6 280/1/6 295/1/6
f 294/2/6 279/2/6 295/2/6
f 280/1/6 246/1/6 296/1/6
f 295/1/6 280/1/6 296/1/6
f 292/2/6 293/2/6 297/2/6
f 293/2/6 294/2/6 297/2/6
f 294/1/6 295/1/6 298/1/6
f 297/2/6 294/2/6 298/2/6
f 291/3/6 292/3/6 299/3/6
f 292/2/6 297/2/6 300/2/6
f 299/3/6 292/3/6 300/3/6
f 300/2/6 297/2/6 301/2/6
f 297/1/6 298/1/6 302/1/6
f 301/2/6 297/2/6 302/2/6
f 300/2/6 301/2/6 303/2/6
f 299/2/6 300/2/6 303/2/6
f 301/1/6 302/1/6 304/1/6
f 303/2/6 301/2/6 304/2/6
f 291/3/6 299/3/6 305/3/6
f 299/2/6 303/2/6 306/2/6
f 305/3/6 299/3/6 306/3/6
f 305/2/6 306/2/6 307/2/6
f 306/2/6 303/2/6 307/2/6
f 303/1/6 304/1/6 308/1/6
f 307/2/6 303/2/6 308/2/6
f 291/3/6 305/3/6 309/3/6
f 305/2/6 307/2/6 309/2/6
f 309/2/6 307/2/6 310/2/6
f 310/2/6 307/2/6 311/2/6
f 307/1/6 308/1/6 312/1/6
f 311/2/6 307/2/6 312/2/6
f 304/1/6 302/1/6 313/1/6
f 312/1/6 308/1/6 313/1/6
f 302/1/6 298/1/6 313/1/6
f 308/1/6 304/1/6 313/1/6
f 298/1/6 295/1/6 314/1/6
f 313/1/6 298/1/6 314/1/6
f 309/3/6 310/3/6 315/3/6
f 310/2/6 311/2/6 315/2/6
f 315/2/6 311/2/6 316/2/6
f 316/2/6 311/2/6 317/2/6
f 311/1/6 312/1/6 318/1/6
f 317/2/6 311/2/6 318/2/6
f 312/1/6 313/1/6 318/1/6
f 313/2/6 314/2/6 319/2/6
f 318/1/6 313/1/6 319/1/6
f 314/1/6 295/1/6 320/1/6
f 319/2/6 314/2/6 320/2/6
f 295/3/6 296/3/6 321/3/6
f 321/3/6 296/3/6 322/3/6
f 316/2/6 317/2/6 323/2/6
f 315/3/6 316/3/6 323/3/6
f 323/2/6 317/2/6 324/2/6
f 324/2/6 317/2/6 325/2/6
f 318/1/6 319/1/6 326/1/6
f 325/2/6 317/2/6 326/2/6
f 317/1/6 318/1/6 326/1/6
f 319/1/6 320/1/6 326/1/6
f 320/1/6 295/1/6 327/1/6
f 326/1/6 320/1/6 327/1/6
f 295/3/6 321/3/6 327/3/6
f 321/2/6 322/2/6 328/2/6
f 327/3/6 321/3/6 328/3/6
f 322/3/6 296/3/6 329/3/6
f 328/2/6 322/2/6 329/2/6
f 329/3/6 296/3/6 330/3/6
f 324/2/6 325/2/6 331/2/6
f 323/3/6 324/3/6 331/3/6
f 331/2/6 325/2/6 332/2/6
f 332/2/6 325/2/6 333/2/6
f 325/1/6 326/1/6 334/1/6
f 333/2/6 325/2/6 334/2/6
f 326/1/6 327/1/6 334/1/6
f 332/2/6 333/2/6 335/2/6
f 331/3/6 332/3/6 335/3/6
f 335/2/6 333/2/6 336/2/6
f 336/2/6 333/2/6 337/2/6
f 333/1/6 334/1/6 338/1/6
f 337/2/6 333/2/6 338/2/6
f 334/1/6 327/1/6 339/1/6
f 338/1/6 334/1/6 339/1/6
f 327/2/6 328/2/6 339/2/6
f 329/2/6 330/2/6 339/2/6
f 328/2/6 329/2/6 339/2/6
f 339/2/6 330/2/6 340/2/6
f 340/2/6 330/2/6 341/2/6
f 330/3/6 296/3/6 342/3/6
f 341/2/6 330/2/6 342/2/6
f 335/3/6 336/3/6 343/3/6
f 336/2/6 337/2/6 343/2/6
f 343/2/6 337/2/6 344/2/6
f 344/2/6 337/2/6 345/2/6
f 337/1/6 338/1/6 346/1/6
f 345/2/6 337/2/6 346/2/6
f 338/1/6 339/1/6 346/1/6
f 340/2/6 341/2/6 347/2/6
f 339/3/6 340/3/6 347/3/6
f 341/3/6 342/3/6 348/3/6
f 347/2/6 341/2/6 348/2/6
f 344/2/6 345/2/6 349/2/6
f 343/3/6 344/3/6 349/3/6
f 349/2/6 345/2/6 350/2/6
f 350/2/6 345/2/6 351/2/6
f 345/1/6 346/1/6 352/1/6
f 351/2/6 345/2/6 352/2/6
f 350/2/6 351/2/6 353/2/6
f 349/3/6 350/3/6 353/3/6
f 353/2/6 351/2/6 354/2/6
f 354/2/6 351/2/6 355/2/6
f 351/1/6 352/1/6 356/1/6
f 355/2/6 351/2/6 356/2/6
f 354/2/6 355/2/6 357/2/6
f 353/1/6 354/1/6 357/1/6
f 355/1/6 356/1/6 358/1/6
f 357/2/6 355/2/6 358/2/6
f 285/3/6 286/3/6 359/3/6
f 286/1/6 287/1/6 360/1/6
f 359/3/6 286/3/6 360/3/6
f 287/3/6 288/3/6 361/3/6
f 360/1/6 287/1/6 361/1/6
f 288/1/6 289/1/6 362/1/6
f 361/3/6 288/3/6 362/3/6
f 289/3/6 290/3/6 363/3/6
f 362/1/6 289/1/6 363/1/6
f 290/1/6 291/1/6 364/1/6
f 363/3/6 290/3/6 364/3/6
f 291/3/6 309/3/6 365/3/6
f 364/1/6 291/1/6 365/1/6
f 331/3/6 335/3/6 365/3/6
f 309/3/6 315/3/6 365/3/6
f 315/3/6 323/3/6 365/3/6
f 349/3/6 353/3/6 365/3/6
f 323/3/6 331/3/6 365/3/6
f 343/3/6 349/3/6 365/3/6
f 335/3/6 343/3/6 365/3/6
f 357/1/6 358/1/6 366/1/6
f 365/3/6 353/3/6 366/3/6
f 353/1/6 357/1/6 366/1/6
f 358/1/6 356/1/6 367/1/6
f 366/1/6 358/1/6 367/1/6
f 339/3/6 347/3/6 367/3/6
f 352/1/6 346/1/6 367/1/6
f 356/1/6 352/1/6 367/1/6
f 347/3/6 348/3/6 367/3/6
f 346/1/6 339/1/6 367/1/6
f 348/3/6 342/3/6 368/3/6
f 367/3/6 348/3/6 368/3/6
f 342/3/6 296/3/6 368/3/6
f 359/1/6 360/1/6 369/1/6
f 360/3/6 361/3/6 370/3/6
f 369/1/6 360/1/6 370/1/6
f 361/1/6 362/1/6 371/1/6
f 370/3/6 361/3/6 371/3/6
f 362/3/6 363/3/6 372/3/6
f 371/1/6 362/1/6 372/1/6
f 363/1/6 364/1/6 373/1/6
f 372/3/6 363/3/6 373/3/6
f 364/3/6 365/3/6 374/3/6
f 373/1/6 364/1/6 374/1/6
f 365/1/6 366/1/6 375/1/6
f 374/3/6 365/3/6 375/3/6
f 366/3/6 367/3/6 376/3/6
f 375/1/6 366/1/6 376/1/6
f 367/1/6 368/1/6 377/1/6
f 376/3/6 367/3/6 377/3/6
f 377/1/6 368/1/6 378/1/6
f 369/3/6 370/3/6 379/3/6
f 370/1/6 371/1/6 380/1/6
f 379/3/6 370/3/6 380/3/6
f 371/3/6 372/3/6 381/3/6
f 380/1/6 371/1/6 381/1/6
f 372/1/6 373/1/6 382/1/6
f 381/3/6 372/3/6 382/3/6
f 373/3/6 374/3/6 383/3/6
f 382/1/6 373/1/6 383/1/6
f 374/1/6 375/1/6 384/1/6
f 383/3/6 374/3/6 384/3/6
f 375/3/6 376/3/6 385/3/6
f 384/1/6 375/1/6 385/1/6
f 376/1/6 377/1/6 386/1/6
f 385/3/6 376/3/6 386/3/6
f 377/3/6 378/3/6 387/3/6
f 386/1/6 377/1/6 387/1/6
f 387/3/6 378/3/6 388/3/6
