# MagicaVoxel @ Ephtracy

# group
o 

# material
mtllib Desk(no_missing_book).mtl
usemtl palette

# normals
vn -1 0 0
vn 1 0 0
vn 0 0 1
vn 0 0 -1
vn 0 -1 0
vn 0 1 0

# texcoords
vt 0.0136719 0.5
vt 0.275391 0.5
vt 0.533203 0.5
vt 0.587891 0.5
vt 0.716797 0.5
vt 0.779297 0.5
vt 0.958984 0.5
vt 0.978516 0.5
vt 0.994141 0.5

# verts
v -3.4 0 1.9
v -3.4 0 1.7
v -3.4 0 -1.8
v -3.4 0 -2
v -3.4 0.1 1.9
v -3.4 0.1 1.7
v -3.4 0.1 -1.8
v -3.4 0.1 -2
v -3.4 2.8 -2
v -3.4 2.8 -2.1
v -3.4 3 1.9
v -3.4 3 -2.1
v -2.9 0.3 -1.6
v -2.9 0.3 -1.8
v -2.9 1.1 -1.6
v -2.9 1.1 -1.8
v -2.9 1.2 -1.6
v -2.9 1.2 -1.8
v -2.9 1.3 -1.6
v -2.9 1.3 -1.8
v -2.4 2 -1.6
v -2.4 2 -1.8
v -2.4 2.2 -1.6
v -2.4 2.2 -1.8
v -2.3 2 -1.8
v -2.3 2 -1.9
v -2.3 2.2 -1.8
v -2.3 2.2 -1.9
v -2.2 1.3 -0.5
v -2.2 1.3 -1.5
v -2.2 1.3 -1.6
v -2.2 1.4 -1.5
v -2.2 1.4 -1.6
v -2.2 1.5 -0.5
v -2.2 1.5 -1.6
v -1.8 0.3 -0.4
v -1.8 0.3 -0.5
v -1.8 0.3 -1.6
v -1.8 0.3 -1.8
v -1.8 0.9 -1.7
v -1.8 0.9 -1.8
v -1.8 1 -1.7
v -1.8 1 -1.8
v -1.8 1.1 -0.4
v -1.8 1.1 -0.5
v -1.8 1.1 -1.6
v -1.8 1.1 -1.8
v -1.7 2 -1.6
v -1.7 2 -1.7
v -1.7 2.2 -1.6
v -1.7 2.2 -1.7
v -1.6 0.3 -0.1
v -1.6 0.3 -0.4
v -1.6 1.1 -0.4
v -1.6 1.1 -1.7
v -1.6 1.2 -0.1
v -1.6 1.2 -1.7
v -1.4 1.2 -0.5
v -1.4 1.2 -1.6
v -1.4 1.3 -0.5
v -1.4 1.3 -1.6
v -1.4 1.4 -0.5
v -1.4 1.4 -1.6
v -1 0.3 -0.3
v -1 0.3 -0.5
v -1 0.3 -1.6
v -1 0.3 -1.7
v -1 1.1 -1.6
v -1 1.1 -1.7
v -1 1.2 -1.6
v -1 1.2 -1.7
v -1 1.3 -0.3
v -1 1.3 -0.5
v -1 1.3 -1.6
v -1 1.3 -1.7
v -0.8 0 1.9
v -0.8 0 1.7
v -0.8 0 -1.8
v -0.8 0 -2
v -0.8 0.1 1.9
v -0.8 0.1 1.7
v -0.8 0.1 -1.8
v -0.8 0.1 -2
v -0.8 0.2 1.7
v -0.8 0.2 -1.8
v -0.8 0.3 1.7
v -0.8 0.3 -0.3
v -0.8 0.3 -1.7
v -0.8 0.3 -1.8
v -0.8 1.1 -1.7
v -0.8 1.2 -1.7
v -0.8 1.3 -0.3
v -0.8 1.3 -1.7
v -0.8 1.5 1.7
v -0.8 1.5 -1.8
v -0.8 1.6 -1.6
v -0.8 1.6 -1.8
v -0.8 1.7 1.7
v -0.8 1.7 -1.5
v -0.8 2.7 -1.5
v -0.8 2.7 -1.6
v -0.8 2.8 1.7
v -0.8 2.8 -2
v 3.4 0 1.9
v 3.4 0 1.7
v 3.4 0 -1.8
v 3.4 0 -2
v 3.4 0.1 1.9
v 3.4 0.1 1.7
v 3.4 0.1 -1.8
v 3.4 0.1 -2
v 3.4 2.8 1.7
v 3.4 2.8 -2
v -3.2 0 1.9
v -3.2 0 1.7
v -3.2 0 -1.8
v -3.2 0 -2
v -3.2 0.1 1.9
v -3.2 0.1 1.7
v -3.2 0.1 -1.8
v -3.2 0.1 -2
v -3.2 0.2 1.7
v -3.2 0.2 -1.8
v -3.2 0.3 1.7
v -3.2 0.3 0.3
v -3.2 0.3 -1.6
v -3.2 0.3 -1.8
v -3.2 1.2 0.3
v -3.2 1.2 -1.6
v -3.2 1.3 0.3
v -3.2 1.3 -1.6
v -3.2 1.4 0.3
v -3.2 1.4 -1.6
v -3.2 1.5 1.7
v -3.2 1.5 -1.8
v -3.2 1.6 -1.6
v -3.2 1.6 -1.8
v -3.2 1.7 1.7
v -3.2 1.7 -1.5
v -3.2 2.7 -1.5
v -3.2 2.7 -1.6
v -3.2 2.8 1.7
v -3.2 2.8 -2
v -2.9 0.3 0.3
v -2.9 0.3 0.1
v -2.9 1.1 0.1
v -2.9 1.2 0.3
v -2.9 1.2 0.1
v -2.9 1.3 0.3
v -2.9 1.3 0.1
v -2.9 1.3 -1.6
v -2.9 1.4 0.3
v -2.9 1.4 -1.6
v -2.5 0.3 0.1
v -2.5 0.3 -0.1
v -2.5 0.3 -1.7
v -2.5 0.3 -1.8
v -2.5 1.1 0.1
v -2.5 1.1 -0.1
v -2.5 1.1 -1.7
v -2.5 1.1 -1.8
v -2.5 1.2 0.1
v -2.5 1.2 -0.1
v -2.5 1.2 -1.7
v -2.5 1.2 -1.8
v -2.5 1.3 0.1
v -2.5 1.3 -0.1
v -2.5 1.3 -1.7
v -2.5 1.3 -1.8
v -2.2 0.3 -0.1
v -2.2 0.3 -0.5
v -2.2 0.3 -1.6
v -2.2 0.3 -1.7
v -2.2 1.1 -1.6
v -2.2 1.1 -1.7
v -2.2 1.2 -1.6
v -2.2 1.2 -1.7
v -2.2 1.3 -0.1
v -2.2 1.3 -0.5
v -2.2 1.3 -1.6
v -2.2 1.3 -1.7
v -2.2 2 -1.6
v -2.2 2 -1.7
v -2.2 2.2 -1.6
v -2.2 2.2 -1.7
v -1.8 1.1 -0.5
v -1.8 1.1 -1.6
v -1.8 1.3 -0.5
v -1.8 1.3 -1.6
v -1.8 1.4 -0.5
v -1.8 1.4 -1.6
v -1.8 1.5 -0.5
v -1.8 1.5 -1.6
v -1.6 0.3 -1.7
v -1.6 0.3 -1.8
v -1.6 0.9 -1.7
v -1.6 0.9 -1.8
v -1.6 1 -1.7
v -1.6 1 -1.8
v -1.6 1.1 -1.7
v -1.6 1.1 -1.8
v -1.6 2 -1.8
v -1.6 2 -1.9
v -1.6 2.2 -1.8
v -1.6 2.2 -1.9
v -1.5 2 -1.6
v -1.5 2 -1.8
v -1.5 2.2 -1.6
v -1.5 2.2 -1.8
v -1.4 0.3 -0.1
v -1.4 0.3 -0.5
v -1.4 0.3 -1.6
v -1.4 0.3 -1.7
v -1.4 1 -1.6
v -1.4 1 -1.7
v -1.4 1.1 -1.6
v -1.4 1.1 -1.7
v -1.4 1.2 -0.1
v -1.4 1.2 -0.5
v -1.4 1.2 -1.6
v -1.4 1.2 -1.7
v -1 1.3 -0.5
v -1 1.3 -1.6
v -1 1.4 -0.5
v -1 1.4 -1.6
v -0.6 0 1.9
v -0.6 0 1.7
v -0.6 0 -1.8
v -0.6 0 -2
v -0.6 0.1 1.9
v -0.6 0.1 1.7
v -0.6 0.1 -1.8
v -0.6 0.1 -2
v -0.6 2.8 1.7
v -0.6 2.8 -2
v 3.6 0 1.9
v 3.6 0 1.7
v 3.6 0 -1.8
v 3.6 0 -2
v 3.6 0.1 1.9
v 3.6 0.1 1.7
v 3.6 0.1 -1.8
v 3.6 0.1 -2
v 3.6 2.8 -2
v 3.6 2.8 -2.1
v 3.6 3 1.9
v 3.6 3 -2.1
v -3.4 0 1.9
v -3.4 0.1 1.9
v -3.4 3 1.9
v -3.2 0 1.9
v -3.2 0.1 1.9
v -0.8 0 1.9
v -0.8 0.1 1.9
v -0.6 0 1.9
v -0.6 0.1 1.9
v 3.4 0 1.9
v 3.4 0.1 1.9
v 3.6 0 1.9
v 3.6 0.1 1.9
v 3.6 3 1.9
v -3.2 0.3 0.3
v -3.2 1.2 0.3
v -3.2 1.3 0.3
v -3.2 1.4 0.3
v -2.9 0.3 0.3
v -2.9 1.2 0.3
v -2.9 1.3 0.3
v -2.9 1.4 0.3
v -2.9 0.3 0.1
v -2.9 1.1 0.1
v -2.9 1.2 0.1
v -2.9 1.3 0.1
v -2.5 0.3 0.1
v -2.5 1.1 0.1
v -2.5 1.2 0.1
v -2.5 1.3 0.1
v -2.5 0.3 -0.1
v -2.5 1.1 -0.1
v -2.5 1.2 -0.1
v -2.5 1.3 -0.1
v -2.4 1.1 -0.1
v -2.4 1.2 -0.1
v -2.2 0.3 -0.1
v -2.2 1.3 -0.1
v -1.6 0.3 -0.1
v -1.6 1.2 -0.1
v -1.4 0.3 -0.1
v -1.4 1.2 -0.1
v -1 0.3 -0.3
v -1 1.3 -0.3
v -0.8 0.3 -0.3
v -0.8 1.3 -0.3
v -1.8 0.3 -0.4
v -1.8 1.1 -0.4
v -1.6 0.3 -0.4
v -1.6 1.1 -0.4
v -2.2 0.3 -0.5
v -2.2 1.3 -0.5
v -2.2 1.5 -0.5
v -1.9 1.3 -0.5
v -1.9 1.4 -0.5
v -1.8 0.3 -0.5
v -1.8 1.1 -0.5
v -1.8 1.3 -0.5
v -1.8 1.4 -0.5
v -1.8 1.5 -0.5
v -1.4 0.3 -0.5
v -1.4 1.2 -0.5
v -1.4 1.3 -0.5
v -1.4 1.4 -0.5
v -1.3 1.2 -0.5
v -1.3 1.3 -0.5
v -1 0.3 -0.5
v -1 1.3 -0.5
v -1 1.4 -0.5
v -3.2 1.7 -1.5
v -3.2 2.7 -1.5
v -0.8 1.7 -1.5
v -0.8 2.7 -1.5
v -2.2 2 -1.7
v -2.2 2.2 -1.7
v -1.7 2 -1.7
v -1.7 2.2 -1.7
v -3.4 0 -1.8
v -3.4 0.1 -1.8
v -3.2 0 -1.8
v -3.2 0.1 -1.8
v -0.8 0 -1.8
v -0.8 0.1 -1.8
v -0.6 0 -1.8
v -0.6 0.1 -1.8
v 3.4 0 -1.8
v 3.4 0.1 -1.8
v 3.6 0 -1.8
v 3.6 0.1 -1.8
v -3.4 0 1.7
v -3.4 0.1 1.7
v -3.2 0 1.7
v -3.2 0.1 1.7
v -3.2 0.2 1.7
v -3.2 0.3 1.7
v -3.2 1.5 1.7
v -3.2 1.7 1.7
v -3.2 2.8 1.7
v -0.8 0 1.7
v -0.8 0.1 1.7
v -0.8 0.2 1.7
v -0.8 0.3 1.7
v -0.8 1.5 1.7
v -0.8 1.7 1.7
v -0.8 2.8 1.7
v -0.6 0 1.7
v -0.6 0.1 1.7
v -0.6 2.8 1.7
v 3.4 0 1.7
v 3.4 0.1 1.7
v 3.4 2.8 1.7
v 3.6 0 1.7
v 3.6 0.1 1.7
v -3.2 0.3 -1.6
v -3.2 1.2 -1.6
v -3.2 1.3 -1.6
v -3.2 1.4 -1.6
v -3.2 1.6 -1.6
v -3.2 2.7 -1.6
v -2.9 0.3 -1.6
v -2.9 1.1 -1.6
v -2.9 1.2 -1.6
v -2.9 1.3 -1.6
v -2.9 1.4 -1.6
v -2.4 2 -1.6
v -2.4 2.2 -1.6
v -2.2 0.3 -1.6
v -2.2 1.1 -1.6
v -2.2 1.2 -1.6
v -2.2 1.3 -1.6
v -2.2 1.4 -1.6
v -2.2 1.5 -1.6
v -2.2 2 -1.6
v -2.2 2.2 -1.6
v -1.8 0.3 -1.6
v -1.8 1.1 -1.6
v -1.8 1.3 -1.6
v -1.8 1.4 -1.6
v -1.8 1.5 -1.6
v -1.7 2 -1.6
v -1.7 2.2 -1.6
v -1.5 2 -1.6
v -1.5 2.2 -1.6
v -1.4 0.3 -1.6
v -1.4 1 -1.6
v -1.4 1.1 -1.6
v -1.4 1.2 -1.6
v -1.4 1.3 -1.6
v -1.4 1.4 -1.6
v -1 0.3 -1.6
v -1 1.1 -1.6
v -1 1.2 -1.6
v -1 1.3 -1.6
v -1 1.4 -1.6
v -0.8 1.6 -1.6
v -0.8 2.7 -1.6
v -2.5 0.3 -1.7
v -2.5 1.1 -1.7
v -2.5 1.2 -1.7
v -2.5 1.3 -1.7
v -2.2 0.3 -1.7
v -2.2 1.1 -1.7
v -2.2 1.2 -1.7
v -2.2 1.3 -1.7
v -1.6 0.3 -1.7
v -1.6 0.9 -1.7
v -1.6 1 -1.7
v -1.6 1.1 -1.7
v -1.6 1.2 -1.7
v -1.4 0.3 -1.7
v -1.4 1 -1.7
v -1.4 1.1 -1.7
v -1.4 1.2 -1.7
v -1 0.3 -1.7
v -1 1.1 -1.7
v -1 1.2 -1.7
v -1 1.3 -1.7
v -0.8 0.3 -1.7
v -0.8 1.1 -1.7
v -0.8 1.2 -1.7
v -0.8 1.3 -1.7
v -3.2 0.2 -1.8
v -3.2 0.3 -1.8
v -3.2 1.5 -1.8
v -3.2 1.6 -1.8
v -2.9 0.3 -1.8
v -2.9 1.1 -1.8
v -2.9 1.2 -1.8
v -2.9 1.3 -1.8
v -2.5 0.3 -1.8
v -2.5 1.1 -1.8
v -2.5 1.2 -1.8
v -2.5 1.3 -1.8
v -2.4 2 -1.8
v -2.4 2.2 -1.8
v -2.3 2 -1.8
v -2.3 2.2 -1.8
v -1.8 0.3 -1.8
v -1.8 0.9 -1.8
v -1.8 1 -1.8
v -1.8 1.1 -1.8
v -1.6 0.3 -1.8
v -1.6 0.9 -1.8
v -1.6 1 -1.8
v -1.6 1.1 -1.8
v -1.6 2 -1.8
v -1.6 2.2 -1.8
v -1.5 2 -1.8
v -1.5 2.2 -1.8
v -0.8 0.2 -1.8
v -0.8 0.3 -1.8
v -0.8 1.5 -1.8
v -0.8 1.6 -1.8
v -2.3 2 -1.9
v -2.3 2.2 -1.9
v -1.6 2 -1.9
v -1.6 2.2 -1.9
v -3.4 0 -2
v -3.4 0.1 -2
v -3.4 2.8 -2
v -3.2 0 -2
v -3.2 0.1 -2
v -3.2 2.8 -2
v -0.8 0 -2
v -0.8 0.1 -2
v -0.8 2.8 -2
v -0.6 0 -2
v -0.6 0.1 -2
v -0.6 2.8 -2
v 3.4 0 -2
v 3.4 0.1 -2
v 3.4 2.8 -2
v 3.6 0 -2
v 3.6 0.1 -2
v 3.6 2.8 -2
v -3.4 2.8 -2.1
v -3.4 3 -2.1
v 3.6 2.8 -2.1
v 3.6 3 -2.1
v -3.4 0 1.9
v -3.2 0 1.9
v -0.8 0 1.9
v -0.6 0 1.9
v 3.4 0 1.9
v 3.6 0 1.9
v -3.4 0 1.7
v -3.2 0 1.7
v -0.8 0 1.7
v -0.6 0 1.7
v 3.4 0 1.7
v 3.6 0 1.7
v -3.4 0 -1.8
v -3.2 0 -1.8
v -0.8 0 -1.8
v -0.6 0 -1.8
v 3.4 0 -1.8
v 3.6 0 -1.8
v -3.4 0 -2
v -3.2 0 -2
v -0.8 0 -2
v -0.6 0 -2
v 3.4 0 -2
v 3.6 0 -2
v -3.2 0.1 1.9
v -0.8 0.1 1.9
v -0.6 0.1 1.9
v 3.4 0.1 1.9
v -3.4 0.1 1.7
v -3.2 0.1 1.7
v -0.8 0.1 1.7
v -0.6 0.1 1.7
v 3.4 0.1 1.7
v 3.6 0.1 1.7
v -3.4 0.1 -1.8
v -3.2 0.1 -1.8
v -0.8 0.1 -1.8
v -0.6 0.1 -1.8
v 3.4 0.1 -1.8
v 3.6 0.1 -1.8
v -3.2 0.2 1.7
v -0.8 0.2 1.7
v -3.2 0.2 -1.8
v -0.8 0.2 -1.8
v -3.2 1.5 1.7
v -0.8 1.5 1.7
v -2.2 1.5 -0.5
v -1.8 1.5 -0.5
v -2.2 1.5 -1.6
v -1.8 1.5 -1.6
v -3.2 1.5 -1.8
v -0.8 1.5 -1.8
v -2.4 2 -1.6
v -2.2 2 -1.6
v -1.7 2 -1.6
v -1.5 2 -1.6
v -2.2 2 -1.7
v -1.7 2 -1.7
v -2.4 2 -1.8
v -2.3 2 -1.8
v -1.6 2 -1.8
v -1.5 2 -1.8
v -2.3 2 -1.9
v -1.6 2 -1.9
v -3.2 2.8 1.7
v -0.8 2.8 1.7
v -0.6 2.8 1.7
v 3.4 2.8 1.7
v -3.4 2.8 -2
v -3.2 2.8 -2
v -0.8 2.8 -2
v -0.6 2.8 -2
v 3.4 2.8 -2
v 3.6 2.8 -2
v -3.4 2.8 -2.1
v 3.6 2.8 -2.1
v -3.2 0.3 1.7
v -0.8 0.3 1.7
v -3.2 0.3 0.3
v -2.9 0.3 0.3
v -2.9 0.3 0.1
v -2.5 0.3 0.1
v -2.5 0.3 -0.1
v -2.2 0.3 -0.1
v -1.6 0.3 -0.1
v -1.4 0.3 -0.1
v -1 0.3 -0.3
v -0.8 0.3 -0.3
v -1.8 0.3 -0.4
v -1.6 0.3 -0.4
v -2.2 0.3 -0.5
v -1.8 0.3 -0.5
v -1.4 0.3 -0.5
v -1 0.3 -0.5
v -3.2 0.3 -1.6
v -2.9 0.3 -1.6
v -2.2 0.3 -1.6
v -1.8 0.3 -1.6
v -1.4 0.3 -1.6
v -1 0.3 -1.6
v -2.5 0.3 -1.7
v -2.2 0.3 -1.7
v -1.6 0.3 -1.7
v -1.4 0.3 -1.7
v -1 0.3 -1.7
v -0.8 0.3 -1.7
v -3.2 0.3 -1.8
v -2.9 0.3 -1.8
v -2.5 0.3 -1.8
v -1.8 0.3 -1.8
v -1.6 0.3 -1.8
v -0.8 0.3 -1.8
v -1.8 1.1 -0.4
v -1.6 1.1 -0.4
v -1.8 1.1 -0.5
v -1.8 1.1 -1.6
v -1.6 1.1 -1.7
v -1.8 1.1 -1.8
v -1.6 1.1 -1.8
v -1.6 1.2 -0.1
v -1.4 1.2 -0.1
v -1.4 1.2 -0.5
v -1.4 1.2 -1.6
v -1.6 1.2 -1.7
v -1.4 1.2 -1.7
v -2.9 1.3 0.1
v -2.5 1.3 0.1
v -2.5 1.3 -0.1
v -2.2 1.3 -0.1
v -1 1.3 -0.3
v -0.8 1.3 -0.3
v -2.2 1.3 -0.5
v -1 1.3 -0.5
v -2.2 1.3 -1.5
v -2.9 1.3 -1.6
v -2.2 1.3 -1.6
v -1 1.3 -1.6
v -2.5 1.3 -1.7
v -2.2 1.3 -1.7
v -1 1.3 -1.7
v -0.8 1.3 -1.7
v -2.9 1.3 -1.8
v -2.5 1.3 -1.8
v -3.2 1.4 0.3
v -2.9 1.4 0.3
v -1.4 1.4 -0.5
v -1 1.4 -0.5
v -3.2 1.4 -1.6
v -2.9 1.4 -1.6
v -1.4 1.4 -1.6
v -1 1.4 -1.6
v -3.2 1.6 -1.6
v -0.8 1.6 -1.6
v -3.2 1.6 -1.8
v -0.8 1.6 -1.8
v -3.2 1.7 1.7
v -0.8 1.7 1.7
v -3.2 1.7 -1.5
v -0.8 1.7 -1.5
v -2.4 2.2 -1.6
v -2.2 2.2 -1.6
v -1.7 2.2 -1.6
v -1.5 2.2 -1.6
v -2.2 2.2 -1.7
v -1.7 2.2 -1.7
v -2.4 2.2 -1.8
v -2.3 2.2 -1.8
v -1.6 2.2 -1.8
v -1.5 2.2 -1.8
v -2.3 2.2 -1.9
v -1.6 2.2 -1.9
v -3.2 2.7 -1.5
v -0.8 2.7 -1.5
v -3.2 2.7 -1.6
v -0.8 2.7 -1.6
v -3.4 3 1.9
v 3.6 3 1.9
v -3.4 3 -2.1
v 3.6 3 -2.1

# faces
f 5/9/1 2/9/1 1/9/1
f 6/9/1 2/9/1 5/9/1
f 7/9/1 4/9/1 3/9/1
f 8/9/1 4/9/1 7/9/1
f 9/3/1 6/3/1 5/3/1
f 9/3/1 7/3/1 6/3/1
f 9/3/1 8/3/1 7/3/1
f 11/3/1 9/3/1 5/3/1
f 11/3/1 10/3/1 9/3/1
f 12/3/1 10/3/1 11/3/1
f 15/2/1 14/2/1 13/2/1
f 16/2/1 14/2/1 15/2/1
f 17/7/1 16/7/1 15/7/1
f 18/7/1 16/7/1 17/7/1
f 19/2/1 18/2/1 17/2/1
f 20/2/1 18/2/1 19/2/1
f 23/8/1 22/8/1 21/8/1
f 24/8/1 22/8/1 23/8/1
f 27/8/1 26/8/1 25/8/1
f 28/8/1 26/8/1 27/8/1
f 32/1/1 30/1/1 29/1/1
f 32/7/1 31/7/1 30/7/1
f 33/7/1 31/7/1 32/7/1
f 34/1/1 32/1/1 29/1/1
f 34/1/1 33/1/1 32/1/1
f 35/1/1 33/1/1 34/1/1
f 40/2/1 39/2/1 38/2/1
f 41/2/1 39/2/1 40/2/1
f 42/2/1 40/2/1 38/2/1
f 42/7/1 41/7/1 40/7/1
f 43/7/1 41/7/1 42/7/1
f 44/2/1 37/2/1 36/2/1
f 45/2/1 37/2/1 44/2/1
f 46/2/1 42/2/1 38/2/1
f 46/2/1 43/2/1 42/2/1
f 47/2/1 43/2/1 46/2/1
f 50/8/1 49/8/1 48/8/1
f 51/8/1 49/8/1 50/8/1
f 54/4/1 53/4/1 52/4/1
f 56/4/1 54/4/1 52/4/1
f 56/4/1 55/4/1 54/4/1
f 57/4/1 55/4/1 56/4/1
f 60/7/1 59/7/1 58/7/1
f 61/7/1 59/7/1 60/7/1
f 62/5/1 61/5/1 60/5/1
f 63/5/1 61/5/1 62/5/1
f 68/1/1 67/1/1 66/1/1
f 69/1/1 67/1/1 68/1/1
f 70/7/1 69/7/1 68/7/1
f 71/7/1 69/7/1 70/7/1
f 72/1/1 65/1/1 64/1/1
f 73/1/1 65/1/1 72/1/1
f 74/1/1 71/1/1 70/1/1
f 75/1/1 71/1/1 74/1/1
f 80/9/1 77/9/1 76/9/1
f 81/9/1 77/9/1 80/9/1
f 82/9/1 79/9/1 78/9/1
f 83/9/1 79/9/1 82/9/1
f 84/3/1 82/3/1 81/3/1
f 84/3/1 83/3/1 82/3/1
f 85/3/1 83/3/1 84/3/1
f 89/3/1 83/3/1 85/3/1
f 90/3/1 89/3/1 88/3/1
f 91/3/1 89/3/1 90/3/1
f 92/3/1 87/3/1 86/3/1
f 93/3/1 89/3/1 91/3/1
f 94/3/1 92/3/1 86/3/1
f 94/3/1 93/3/1 92/3/1
f 95/3/1 89/3/1 93/3/1
f 95/3/1 93/3/1 94/3/1
f 95/3/1 83/3/1 89/3/1
f 97/3/1 83/3/1 95/3/1
f 100/3/1 99/3/1 98/3/1
f 101/3/1 97/3/1 96/3/1
f 102/3/1 100/3/1 98/3/1
f 102/3/1 101/3/1 100/3/1
f 103/3/1 83/3/1 97/3/1
f 103/3/1 101/3/1 102/3/1
f 103/3/1 97/3/1 101/3/1
f 108/9/1 105/9/1 104/9/1
f 109/9/1 105/9/1 108/9/1
f 110/9/1 107/9/1 106/9/1
f 111/9/1 107/9/1 110/9/1
f 112/3/1 110/3/1 109/3/1
f 112/3/1 111/3/1 110/3/1
f 113/3/1 111/3/1 112/3/1
f 114/9/2 115/9/2 118/9/2
f 118/9/2 115/9/2 119/9/2
f 116/9/2 117/9/2 120/9/2
f 120/9/2 117/9/2 121/9/2
f 119/3/2 120/3/2 122/3/2
f 120/3/2 121/3/2 122/3/2
f 122/3/2 121/3/2 123/3/2
f 123/3/2 121/3/2 127/3/2
f 124/3/2 125/3/2 128/3/2
f 126/3/2 127/3/2 129/3/2
f 124/3/2 128/3/2 130/3/2
f 129/3/2 127/3/2 131/3/2
f 124/3/2 130/3/2 132/3/2
f 131/3/2 127/3/2 133/3/2
f 124/3/2 132/3/2 134/3/2
f 132/3/2 133/3/2 134/3/2
f 133/3/2 127/3/2 135/3/2
f 134/3/2 133/3/2 135/3/2
f 127/3/2 121/3/2 135/3/2
f 135/3/2 121/3/2 137/3/2
f 138/3/2 139/3/2 140/3/2
f 136/3/2 137/3/2 141/3/2
f 138/3/2 140/3/2 142/3/2
f 140/3/2 141/3/2 142/3/2
f 137/3/2 121/3/2 143/3/2
f 142/3/2 141/3/2 143/3/2
f 141/3/2 137/3/2 143/3/2
f 144/6/2 145/6/2 146/6/2
f 144/6/2 146/6/2 147/6/2
f 147/6/2 146/6/2 148/6/2
f 147/7/2 148/7/2 149/7/2
f 149/7/2 148/7/2 150/7/2
f 149/6/2 150/6/2 152/6/2
f 150/6/2 151/6/2 152/6/2
f 152/6/2 151/6/2 153/6/2
f 154/2/2 155/2/2 158/2/2
f 158/2/2 155/2/2 159/2/2
f 156/2/2 157/2/2 160/2/2
f 160/2/2 157/2/2 161/2/2
f 158/7/2 159/7/2 162/7/2
f 162/7/2 159/7/2 163/7/2
f 160/7/2 161/7/2 164/7/2
f 164/7/2 161/7/2 165/7/2
f 162/2/2 163/2/2 166/2/2
f 166/2/2 163/2/2 167/2/2
f 164/2/2 165/2/2 168/2/2
f 168/2/2 165/2/2 169/2/2
f 172/4/2 173/4/2 174/4/2
f 174/4/2 173/4/2 175/4/2
f 174/7/2 175/7/2 176/7/2
f 176/7/2 175/7/2 177/7/2
f 170/4/2 171/4/2 178/4/2
f 178/4/2 171/4/2 179/4/2
f 176/4/2 177/4/2 180/4/2
f 180/4/2 177/4/2 181/4/2
f 182/8/2 183/8/2 184/8/2
f 184/8/2 183/8/2 185/8/2
f 186/1/2 187/1/2 188/1/2
f 188/1/2 187/1/2 189/1/2
f 188/7/2 189/7/2 190/7/2
f 190/7/2 189/7/2 191/7/2
f 190/1/2 191/1/2 192/1/2
f 192/1/2 191/1/2 193/1/2
f 194/2/2 195/2/2 196/2/2
f 196/2/2 195/2/2 197/2/2
f 196/7/2 197/7/2 198/7/2
f 198/7/2 197/7/2 199/7/2
f 198/2/2 199/2/2 200/2/2
f 200/2/2 199/2/2 201/2/2
f 202/8/2 203/8/2 204/8/2
f 204/8/2 203/8/2 205/8/2
f 206/8/2 207/8/2 208/8/2
f 208/8/2 207/8/2 209/8/2
f 212/4/2 213/4/2 214/4/2
f 214/4/2 213/4/2 215/4/2
f 214/7/2 215/7/2 216/7/2
f 216/7/2 215/7/2 217/7/2
f 210/4/2 211/4/2 218/4/2
f 218/4/2 211/4/2 219/4/2
f 216/4/2 217/4/2 220/4/2
f 220/4/2 217/4/2 221/4/2
f 222/5/2 223/5/2 224/5/2
f 224/5/2 223/5/2 225/5/2
f 226/9/2 227/9/2 230/9/2
f 230/9/2 227/9/2 231/9/2
f 228/9/2 229/9/2 232/9/2
f 232/9/2 229/9/2 233/9/2
f 231/3/2 232/3/2 234/3/2
f 232/3/2 233/3/2 234/3/2
f 234/3/2 233/3/2 235/3/2
f 236/9/2 237/9/2 240/9/2
f 240/9/2 237/9/2 241/9/2
f 238/9/2 239/9/2 242/9/2
f 242/9/2 239/9/2 243/9/2
f 240/3/2 241/3/2 244/3/2
f 241/3/2 242/3/2 244/3/2
f 242/3/2 243/3/2 244/3/2
f 240/3/2 244/3/2 246/3/2
f 244/3/2 245/3/2 246/3/2
f 246/3/2 245/3/2 247/3/2
f 251/9/3 249/9/3 248/9/3
f 252/3/3 250/3/3 249/3/3
f 252/9/3 249/9/3 251/9/3
f 254/3/3 250/3/3 252/3/3
f 255/9/3 254/9/3 253/9/3
f 256/3/3 250/3/3 254/3/3
f 256/9/3 254/9/3 255/9/3
f 258/3/3 250/3/3 256/3/3
f 259/9/3 258/9/3 257/9/3
f 260/3/3 250/3/3 258/3/3
f 260/9/3 258/9/3 259/9/3
f 261/3/3 250/3/3 260/3/3
f 266/6/3 263/6/3 262/6/3
f 267/7/3 264/7/3 263/7/3
f 267/6/3 263/6/3 266/6/3
f 268/6/3 265/6/3 264/6/3
f 268/7/3 264/7/3 267/7/3
f 269/6/3 265/6/3 268/6/3
f 274/2/3 271/2/3 270/2/3
f 275/7/3 272/7/3 271/7/3
f 275/2/3 271/2/3 274/2/3
f 276/2/3 273/2/3 272/2/3
f 276/7/3 272/7/3 275/7/3
f 277/2/3 273/2/3 276/2/3
f 282/4/3 279/4/3 278/4/3
f 282/7/3 280/7/3 279/7/3
f 283/4/3 281/4/3 280/4/3
f 283/7/3 280/7/3 282/7/3
f 284/4/3 282/4/3 278/4/3
f 284/4/3 283/4/3 282/4/3
f 285/4/3 281/4/3 283/4/3
f 285/4/3 283/4/3 284/4/3
f 288/4/3 287/4/3 286/4/3
f 289/4/3 287/4/3 288/4/3
f 292/1/3 291/1/3 290/1/3
f 293/1/3 291/1/3 292/1/3
f 296/2/3 295/2/3 294/2/3
f 297/2/3 295/2/3 296/2/3
f 301/1/3 299/1/3 298/1/3
f 301/1/3 300/1/3 299/1/3
f 302/1/3 300/1/3 301/1/3
f 303/1/3 301/1/3 298/1/3
f 304/1/3 301/1/3 303/1/3
f 305/7/3 302/7/3 301/7/3
f 305/1/3 301/1/3 304/1/3
f 306/1/3 300/1/3 302/1/3
f 306/7/3 302/7/3 305/7/3
f 307/1/3 300/1/3 306/1/3
f 312/5/3 309/5/3 308/5/3
f 312/7/3 310/7/3 309/7/3
f 313/5/3 311/5/3 310/5/3
f 313/7/3 310/7/3 312/7/3
f 314/5/3 312/5/3 308/5/3
f 314/5/3 313/5/3 312/5/3
f 315/5/3 311/5/3 313/5/3
f 315/5/3 313/5/3 314/5/3
f 316/5/3 311/5/3 315/5/3
f 319/3/3 318/3/3 317/3/3
f 320/3/3 318/3/3 319/3/3
f 323/8/3 322/8/3 321/8/3
f 324/8/3 322/8/3 323/8/3
f 327/9/3 326/9/3 325/9/3
f 328/9/3 326/9/3 327/9/3
f 331/9/3 330/9/3 329/9/3
f 332/9/3 330/9/3 331/9/3
f 335/9/3 334/9/3 333/9/3
f 336/9/3 334/9/3 335/9/3
f 337/9/4 338/9/4 339/9/4
f 339/9/4 338/9/4 340/9/4
f 340/3/4 341/3/4 347/3/4
f 347/3/4 341/3/4 348/3/4
f 342/3/4 343/3/4 349/3/4
f 349/3/4 343/3/4 350/3/4
f 344/3/4 345/3/4 351/3/4
f 351/3/4 345/3/4 352/3/4
f 346/9/4 347/9/4 353/9/4
f 353/9/4 347/9/4 354/9/4
f 354/3/4 355/3/4 357/3/4
f 357/3/4 355/3/4 358/3/4
f 356/9/4 357/9/4 359/9/4
f 359/9/4 357/9/4 360/9/4
f 361/6/4 362/6/4 367/6/4
f 367/6/4 362/6/4 368/6/4
f 362/7/4 363/7/4 369/7/4
f 368/6/4 362/6/4 369/6/4
f 363/6/4 364/6/4 370/6/4
f 369/7/4 363/7/4 370/7/4
f 370/6/4 364/6/4 371/6/4
f 365/3/4 366/3/4 372/3/4
f 372/3/4 366/3/4 373/3/4
f 365/3/4 372/3/4 380/3/4
f 373/3/4 366/3/4 381/3/4
f 374/1/4 375/1/4 382/1/4
f 375/1/4 376/1/4 382/1/4
f 376/1/4 377/1/4 382/1/4
f 382/1/4 377/1/4 383/1/4
f 377/7/4 378/7/4 384/7/4
f 383/1/4 377/1/4 384/1/4
f 378/1/4 379/1/4 385/1/4
f 384/7/4 378/7/4 385/7/4
f 385/1/4 379/1/4 386/1/4
f 365/3/4 380/3/4 387/3/4
f 380/3/4 381/3/4 387/3/4
f 381/3/4 366/3/4 388/3/4
f 387/3/4 381/3/4 388/3/4
f 365/3/4 387/3/4 389/3/4
f 388/3/4 366/3/4 390/3/4
f 391/5/4 392/5/4 397/5/4
f 392/5/4 393/5/4 397/5/4
f 393/5/4 394/5/4 397/5/4
f 397/5/4 394/5/4 398/5/4
f 394/7/4 395/7/4 399/7/4
f 398/5/4 394/5/4 399/5/4
f 395/5/4 396/5/4 400/5/4
f 399/7/4 395/7/4 400/7/4
f 400/5/4 396/5/4 401/5/4
f 365/3/4 389/3/4 402/3/4
f 389/3/4 390/3/4 402/3/4
f 390/3/4 366/3/4 403/3/4
f 402/3/4 390/3/4 403/3/4
f 404/4/4 405/4/4 408/4/4
f 405/7/4 406/7/4 409/7/4
f 408/4/4 405/4/4 409/4/4
f 406/4/4 407/4/4 410/4/4
f 409/7/4 406/7/4 410/7/4
f 410/4/4 407/4/4 411/4/4
f 412/4/4 413/4/4 417/4/4
f 413/4/4 414/4/4 417/4/4
f 414/7/4 415/7/4 418/7/4
f 417/4/4 414/4/4 418/4/4
f 415/4/4 416/4/4 419/4/4
f 418/7/4 415/7/4 419/7/4
f 419/4/4 416/4/4 420/4/4
f 421/1/4 422/1/4 425/1/4
f 422/7/4 423/7/4 426/7/4
f 425/1/4 422/1/4 426/1/4
f 423/1/4 424/1/4 427/1/4
f 426/7/4 423/7/4 427/7/4
f 427/1/4 424/1/4 428/1/4
f 429/3/4 430/3/4 433/3/4
f 429/3/4 433/3/4 437/3/4
f 433/2/4 434/2/4 437/2/4
f 434/7/4 435/7/4 438/7/4
f 437/2/4 434/2/4 438/2/4
f 435/2/4 436/2/4 439/2/4
f 438/7/4 435/7/4 439/7/4
f 439/2/4 436/2/4 440/2/4
f 441/8/4 442/8/4 443/8/4
f 443/8/4 442/8/4 444/8/4
f 429/3/4 437/3/4 445/3/4
f 429/3/4 445/3/4 449/3/4
f 445/2/4 446/2/4 449/2/4
f 446/7/4 447/7/4 450/7/4
f 449/2/4 446/2/4 450/2/4
f 447/2/4 448/2/4 451/2/4
f 450/7/4 447/7/4 451/7/4
f 451/2/4 448/2/4 452/2/4
f 453/8/4 454/8/4 455/8/4
f 455/8/4 454/8/4 456/8/4
f 429/3/4 449/3/4 457/3/4
f 457/3/4 449/3/4 458/3/4
f 431/3/4 432/3/4 459/3/4
f 459/3/4 432/3/4 460/3/4
f 461/8/4 462/8/4 463/8/4
f 463/8/4 462/8/4 464/8/4
f 465/9/4 466/9/4 468/9/4
f 466/3/4 467/3/4 469/3/4
f 468/9/4 466/9/4 469/9/4
f 469/3/4 467/3/4 470/3/4
f 471/9/4 472/9/4 474/9/4
f 472/3/4 473/3/4 475/3/4
f 474/9/4 472/9/4 475/9/4
f 475/3/4 473/3/4 476/3/4
f 477/9/4 478/9/4 480/9/4
f 478/3/4 479/3/4 481/3/4
f 480/9/4 478/9/4 481/9/4
f 481/3/4 479/3/4 482/3/4
f 483/3/4 484/3/4 485/3/4
f 485/3/4 484/3/4 486/3/4
f 493/9/5 488/9/5 487/9/5
f 494/9/5 488/9/5 493/9/5
f 495/9/5 490/9/5 489/9/5
f 496/9/5 490/9/5 495/9/5
f 497/9/5 492/9/5 491/9/5
f 498/9/5 492/9/5 497/9/5
f 505/9/5 500/9/5 499/9/5
f 506/9/5 500/9/5 505/9/5
f 507/9/5 502/9/5 501/9/5
f 508/9/5 502/9/5 507/9/5
f 509/9/5 504/9/5 503/9/5
f 510/9/5 504/9/5 509/9/5
f 516/3/5 512/3/5 511/3/5
f 517/3/5 512/3/5 516/3/5
f 518/3/5 514/3/5 513/3/5
f 519/3/5 514/3/5 518/3/5
f 521/3/5 516/3/5 515/3/5
f 522/3/5 516/3/5 521/3/5
f 523/3/5 518/3/5 517/3/5
f 524/3/5 518/3/5 523/3/5
f 525/3/5 520/3/5 519/3/5
f 526/3/5 520/3/5 525/3/5
f 529/3/5 528/3/5 527/3/5
f 530/3/5 528/3/5 529/3/5
f 533/3/5 532/3/5 531/3/5
f 534/3/5 532/3/5 533/3/5
f 535/3/5 533/3/5 531/3/5
f 536/3/5 532/3/5 534/3/5
f 537/3/5 535/3/5 531/3/5
f 537/3/5 536/3/5 535/3/5
f 538/3/5 532/3/5 536/3/5
f 538/3/5 536/3/5 537/3/5
f 543/8/5 540/8/5 539/8/5
f 544/8/5 542/8/5 541/8/5
f 545/8/5 543/8/5 539/8/5
f 545/8/5 544/8/5 543/8/5
f 546/8/5 544/8/5 545/8/5
f 547/8/5 542/8/5 544/8/5
f 547/8/5 544/8/5 546/8/5
f 548/8/5 542/8/5 547/8/5
f 549/8/5 547/8/5 546/8/5
f 550/8/5 547/8/5 549/8/5
f 556/3/5 552/3/5 551/3/5
f 557/3/5 552/3/5 556/3/5
f 558/3/5 554/3/5 553/3/5
f 559/3/5 554/3/5 558/3/5
f 561/3/5 557/3/5 556/3/5
f 561/3/5 560/3/5 559/3/5
f 561/3/5 559/3/5 558/3/5
f 561/3/5 558/3/5 557/3/5
f 561/3/5 556/3/5 555/3/5
f 562/3/5 560/3/5 561/3/5
f 563/3/6 564/3/6 565/3/6
f 565/3/6 564/3/6 566/3/6
f 566/3/6 564/3/6 567/3/6
f 567/3/6 564/3/6 568/3/6
f 568/3/6 564/3/6 569/3/6
f 569/3/6 564/3/6 570/3/6
f 570/3/6 564/3/6 571/3/6
f 571/3/6 564/3/6 572/3/6
f 572/3/6 564/3/6 573/3/6
f 573/3/6 564/3/6 574/3/6
f 570/3/6 571/3/6 575/3/6
f 575/3/6 571/3/6 576/3/6
f 570/3/6 575/3/6 577/3/6
f 577/3/6 575/3/6 578/3/6
f 572/3/6 573/3/6 579/3/6
f 579/3/6 573/3/6 580/3/6
f 583/3/6 584/3/6 588/3/6
f 585/3/6 586/3/6 590/3/6
f 590/3/6 586/3/6 591/3/6
f 581/3/6 582/3/6 593/3/6
f 593/3/6 582/3/6 594/3/6
f 587/3/6 588/3/6 595/3/6
f 588/3/6 584/3/6 596/3/6
f 595/3/6 588/3/6 596/3/6
f 590/3/6 591/3/6 597/3/6
f 591/3/6 592/3/6 597/3/6
f 589/3/6 590/3/6 597/3/6
f 597/3/6 592/3/6 598/3/6
f 599/2/6 600/2/6 601/2/6
f 601/2/6 600/2/6 602/2/6
f 602/2/6 600/2/6 603/2/6
f 602/2/6 603/2/6 604/2/6
f 604/2/6 603/2/6 605/2/6
f 606/4/6 607/4/6 608/4/6
f 606/4/6 608/4/6 609/4/6
f 606/4/6 609/4/6 610/4/6
f 610/4/6 609/4/6 611/4/6
f 612/2/6 613/2/6 614/2/6
f 614/4/6 615/4/6 618/4/6
f 616/1/6 617/1/6 619/1/6
f 614/4/6 618/4/6 620/4/6
f 612/2/6 614/2/6 621/2/6
f 614/4/6 620/4/6 622/4/6
f 619/1/6 617/1/6 623/1/6
f 614/4/6 622/4/6 624/4/6
f 621/2/6 614/2/6 624/2/6
f 624/4/6 622/4/6 625/4/6
f 623/1/6 617/1/6 626/1/6
f 626/1/6 617/1/6 627/1/6
f 621/2/6 624/2/6 628/2/6
f 628/2/6 624/2/6 629/2/6
f 630/6/6 631/6/6 634/6/6
f 634/6/6 631/6/6 635/6/6
f 632/5/6 633/5/6 636/5/6
f 636/5/6 633/5/6 637/5/6
f 638/3/6 639/3/6 640/3/6
f 640/3/6 639/3/6 641/3/6
f 642/3/6 643/3/6 644/3/6
f 644/3/6 643/3/6 645/3/6
f 646/8/6 647/8/6 650/8/6
f 648/8/6 649/8/6 651/8/6
f 646/8/6 650/8/6 652/8/6
f 650/8/6 651/8/6 652/8/6
f 652/8/6 651/8/6 653/8/6
f 651/8/6 649/8/6 654/8/6
f 653/8/6 651/8/6 654/8/6
f 654/8/6 649/8/6 655/8/6
f 653/8/6 654/8/6 656/8/6
f 656/8/6 654/8/6 657/8/6
f 658/3/6 659/3/6 660/3/6
f 660/3/6 659/3/6 661/3/6
f 662/3/6 663/3/6 664/3/6
f 664/3/6 663/3/6 665/3/6
