# MagicaVoxel @ Ephtracy

# group
o 

# material
mtllib Knife.mtl
usemtl palette

# normals
vn -1 0 0
vn 1 0 0
vn 0 0 1
vn 0 0 -1
vn 0 -1 0
vn 0 1 0

# texcoords
vt 0.865234 0.5
vt 0.869141 0.5
vt 0.978516 0.5
vt 0.986328 0.5
vt 0.994141 0.5

# verts
v -0.3 0.5 0
v -0.3 0.5 -0.1
v -0.3 1.8 0
v -0.3 1.8 -0.1
v -0.3 1.9 0
v -0.3 1.9 -0.1
v -0.3 2 0
v -0.3 2 -0.1
v -0.2 0 0
v -0.2 0 -0.1
v -0.2 0.5 0
v -0.2 0.5 -0.1
v -0.1 1.9 0
v -0.1 1.9 -0.1
v -0.1 2 0
v -0.1 2 -0.1
v 0.1 0 0
v 0.1 0 -0.1
v 0.1 0.5 0
v 0.1 0.5 -0.1
v 0.1 1.8 0
v 0.1 1.8 -0.1
v 0.1 1.9 0
v 0.1 1.9 -0.1
v 0.2 1.6 0
v 0.2 1.6 -0.1
v 0.2 1.8 0
v 0.2 1.8 -0.1
v 0.3 1.4 0
v 0.3 1.4 -0.1
v 0.3 1.6 0
v 0.3 1.6 -0.1
v 0.4 0.5 0
v 0.4 0.5 -0.1
v 0.4 0.8 0
v 0.4 0.8 -0.1
v 0.4 1.4 0
v 0.4 1.4 -0.1
v -0.3 0.5 0
v -0.3 1.8 0
v -0.3 1.9 0
v -0.3 2 0
v -0.2 0 0
v -0.2 0.5 0
v -0.2 1.7 0
v -0.2 1.8 0
v -0.1 1.8 0
v -0.1 1.9 0
v -0.1 2 0
v 0 1.5 0
v 0 1.7 0
v 0.1 0 0
v 0.1 0.5 0
v 0.1 1.1 0
v 0.1 1.5 0
v 0.1 1.6 0
v 0.1 1.8 0
v 0.1 1.9 0
v 0.2 0.9 0
v 0.2 1.1 0
v 0.2 1.4 0
v 0.2 1.6 0
v 0.2 1.8 0
v 0.3 0.5 0
v 0.3 0.8 0
v 0.3 0.9 0
v 0.3 1.4 0
v 0.3 1.6 0
v 0.4 0.5 0
v 0.4 0.8 0
v 0.4 1.4 0
v -0.3 0.5 -0.1
v -0.3 1.8 -0.1
v -0.3 1.9 -0.1
v -0.3 2 -0.1
v -0.2 0 -0.1
v -0.2 0.5 -0.1
v -0.2 1.7 -0.1
v -0.2 1.8 -0.1
v -0.1 1.8 -0.1
v -0.1 1.9 -0.1
v -0.1 2 -0.1
v 0 1.5 -0.1
v 0 1.7 -0.1
v 0.1 0 -0.1
v 0.1 0.5 -0.1
v 0.1 1.1 -0.1
v 0.1 1.5 -0.1
v 0.1 1.6 -0.1
v 0.1 1.8 -0.1
v 0.1 1.9 -0.1
v 0.2 0.9 -0.1
v 0.2 1.1 -0.1
v 0.2 1.4 -0.1
v 0.2 1.6 -0.1
v 0.2 1.8 -0.1
v 0.3 0.5 -0.1
v 0.3 0.8 -0.1
v 0.3 0.9 -0.1
v 0.3 1.4 -0.1
v 0.3 1.6 -0.1
v 0.4 0.5 -0.1
v 0.4 0.8 -0.1
v 0.4 1.4 -0.1
v -0.2 0 0
v 0.1 0 0
v -0.2 0 -0.1
v 0.1 0 -0.1
v -0.3 0.5 0
v -0.2 0.5 0
v 0.1 0.5 0
v 0.3 0.5 0
v 0.4 0.5 0
v -0.3 0.5 -0.1
v -0.2 0.5 -0.1
v 0.1 0.5 -0.1
v 0.3 0.5 -0.1
v 0.4 0.5 -0.1
v 0.3 1.4 0
v 0.4 1.4 0
v 0.3 1.4 -0.1
v 0.4 1.4 -0.1
v 0.2 1.6 0
v 0.3 1.6 0
v 0.2 1.6 -0.1
v 0.3 1.6 -0.1
v 0.1 1.8 0
v 0.2 1.8 0
v 0.1 1.8 -0.1
v 0.2 1.8 -0.1
v -0.1 1.9 0
v 0.1 1.9 0
v -0.1 1.9 -0.1
v 0.1 1.9 -0.1
v -0.3 2 0
v -0.1 2 0
v -0.3 2 -0.1
v -0.1 2 -0.1

# faces
f 3/4/1 2/4/1 1/4/1
f 4/4/1 2/4/1 3/4/1
f 5/2/1 4/2/1 3/2/1
f 6/2/1 4/2/1 5/2/1
f 7/1/1 6/1/1 5/1/1
f 8/1/1 6/1/1 7/1/1
f 11/5/1 10/5/1 9/5/1
f 12/5/1 10/5/1 11/5/1
f 13/1/2 14/1/2 15/1/2
f 15/1/2 14/1/2 16/1/2
f 17/5/2 18/5/2 19/5/2
f 19/5/2 18/5/2 20/5/2
f 21/1/2 22/1/2 23/1/2
f 23/1/2 22/1/2 24/1/2
f 25/1/2 26/1/2 27/1/2
f 27/1/2 26/1/2 28/1/2
f 29/1/2 30/1/2 31/1/2
f 31/1/2 30/1/2 32/1/2
f 33/3/2 34/3/2 35/3/2
f 35/3/2 34/3/2 36/3/2
f 35/1/2 36/1/2 37/1/2
f 37/1/2 36/1/2 38/1/2
f 44/4/3 40/4/3 39/4/3
f 45/4/3 40/4/3 44/4/3
f 46/2/3 41/2/3 40/2/3
f 46/4/3 40/4/3 45/4/3
f 47/2/3 46/2/3 45/2/3
f 47/2/3 41/2/3 46/2/3
f 48/1/3 42/1/3 41/1/3
f 48/2/3 41/2/3 47/2/3
f 49/1/3 42/1/3 48/1/3
f 50/4/3 45/4/3 44/4/3
f 51/2/3 47/2/3 45/2/3
f 51/4/3 45/4/3 50/4/3
f 52/5/3 44/5/3 43/5/3
f 53/4/3 50/4/3 44/4/3
f 53/5/3 44/5/3 52/5/3
f 54/4/3 50/4/3 53/4/3
f 55/2/3 51/2/3 50/2/3
f 55/4/3 50/4/3 54/4/3
f 56/2/3 51/2/3 55/2/3
f 57/2/3 47/2/3 51/2/3
f 57/2/3 51/2/3 56/2/3
f 57/1/3 48/1/3 47/1/3
f 58/1/3 48/1/3 57/1/3
f 59/4/3 54/4/3 53/4/3
f 60/2/3 56/2/3 55/2/3
f 60/4/3 54/4/3 59/4/3
f 60/2/3 55/2/3 54/2/3
f 61/2/3 56/2/3 60/2/3
f 62/1/3 57/1/3 56/1/3
f 62/2/3 56/2/3 61/2/3
f 63/1/3 57/1/3 62/1/3
f 64/4/3 59/4/3 53/4/3
f 65/4/3 59/4/3 64/4/3
f 66/2/3 61/2/3 60/2/3
f 66/4/3 59/4/3 65/4/3
f 66/2/3 60/2/3 59/2/3
f 67/1/3 62/1/3 61/1/3
f 67/2/3 61/2/3 66/2/3
f 68/1/3 62/1/3 67/1/3
f 69/3/3 65/3/3 64/3/3
f 70/1/3 66/1/3 65/1/3
f 70/3/3 65/3/3 69/3/3
f 70/1/3 67/1/3 66/1/3
f 71/1/3 67/1/3 70/1/3
f 72/4/4 73/4/4 77/4/4
f 77/4/4 73/4/4 78/4/4
f 73/2/4 74/2/4 79/2/4
f 78/4/4 73/4/4 79/4/4
f 78/2/4 79/2/4 80/2/4
f 79/2/4 74/2/4 80/2/4
f 74/1/4 75/1/4 81/1/4
f 80/2/4 74/2/4 81/2/4
f 81/1/4 75/1/4 82/1/4
f 77/4/4 78/4/4 83/4/4
f 78/2/4 80/2/4 84/2/4
f 83/4/4 78/4/4 84/4/4
f 76/5/4 77/5/4 85/5/4
f 77/4/4 83/4/4 86/4/4
f 85/5/4 77/5/4 86/5/4
f 86/4/4 83/4/4 87/4/4
f 83/2/4 84/2/4 88/2/4
f 87/4/4 83/4/4 88/4/4
f 88/2/4 84/2/4 89/2/4
f 84/2/4 80/2/4 90/2/4
f 89/2/4 84/2/4 90/2/4
f 80/1/4 81/1/4 90/1/4
f 90/1/4 81/1/4 91/1/4
f 86/4/4 87/4/4 92/4/4
f 88/2/4 89/2/4 93/2/4
f 92/4/4 87/4/4 93/4/4
f 87/2/4 88/2/4 93/2/4
f 93/2/4 89/2/4 94/2/4
f 89/1/4 90/1/4 95/1/4
f 94/2/4 89/2/4 95/2/4
f 95/1/4 90/1/4 96/1/4
f 86/4/4 92/4/4 97/4/4
f 97/4/4 92/4/4 98/4/4
f 93/2/4 94/2/4 99/2/4
f 98/4/4 92/4/4 99/4/4
f 92/2/4 93/2/4 99/2/4
f 94/1/4 95/1/4 100/1/4
f 99/2/4 94/2/4 100/2/4
f 100/1/4 95/1/4 101/1/4
f 97/3/4 98/3/4 102/3/4
f 98/1/4 99/1/4 103/1/4
f 102/3/4 98/3/4 103/3/4
f 99/1/4 100/1/4 103/1/4
f 103/1/4 100/1/4 104/1/4
f 107/5/5 106/5/5 105/5/5
f 108/5/5 106/5/5 107/5/5
f 114/4/5 110/4/5 109/4/5
f 115/4/5 110/4/5 114/4/5
f 116/4/5 112/4/5 111/4/5
f 117/3/5 113/3/5 112/3/5
f 117/4/5 112/4/5 116/4/5
f 118/3/5 113/3/5 117/3/5
f 119/1/6 120/1/6 121/1/6
f 121/1/6 120/1/6 122/1/6
f 123/1/6 124/1/6 125/1/6
f 125/1/6 124/1/6 126/1/6
f 127/1/6 128/1/6 129/1/6
f 129/1/6 128/1/6 130/1/6
f 131/1/6 132/1/6 133/1/6
f 133/1/6 132/1/6 134/1/6
f 135/1/6 136/1/6 137/1/6
f 137/1/6 136/1/6 138/1/6
