# MagicaVoxel @ Ephtracy

# group
o 

# material
mtllib Picture.mtl
usemtl palette

# normals
vn -1 0 0
vn 1 0 0
vn 0 0 1
vn 0 0 -1
vn 0 -1 0
vn 0 1 0

# texcoords
vt 0.0332031 0.5
vt 0.0683594 0.5
vt 0.248047 0.5
vt 0.533203 0.5
vt 0.537109 0.5
vt 0.728516 0.5
vt 0.935547 0.5
vt 0.958984 0.5
vt 0.962891 0.5
vt 0.994141 0.5

# verts
v -0.9 0 0
v -0.9 0 -0.1
v -0.9 0 -0.2
v -0.9 1.5 0
v -0.9 1.5 -0.1
v -0.9 1.5 -0.2
v -0.8 0.1 0.1
v -0.8 0.1 0
v -0.8 1.4 0.1
v -0.8 1.4 0
v 0.9 0.2 0.1
v 0.9 0.2 0
v 0.9 1.3 0.1
v 0.9 1.3 0
v -0.7 0.2 0.1
v -0.7 0.2 0
v -0.7 1.3 0.1
v -0.7 1.3 0
v 1 0.1 0.1
v 1 0.1 0
v 1 1.4 0.1
v 1 1.4 0
v 1.1 0 0
v 1.1 0 -0.1
v 1.1 0 -0.2
v 1.1 1.5 0
v 1.1 1.5 -0.1
v 1.1 1.5 -0.2
v -0.8 0.1 0.1
v -0.8 1.4 0.1
v -0.7 0.2 0.1
v -0.7 1.3 0.1
v 0.9 0.2 0.1
v 0.9 1.3 0.1
v 1 0.1 0.1
v 1 1.4 0.1
v -0.9 0 0
v -0.9 1.5 0
v -0.8 0.1 0
v -0.8 1.4 0
v -0.7 0.2 0
v -0.7 1.3 0
v -0.6 0.5 0
v -0.6 0.8 0
v -0.5 0.2 0
v -0.5 0.5 0
v -0.5 0.8 0
v -0.5 1.2 0
v -0.4 0.4 0
v -0.4 0.5 0
v -0.4 1 0
v -0.4 1.1 0
v -0.3 0.2 0
v -0.3 0.4 0
v -0.3 1 0
v -0.3 1.1 0
v -0.2 0.2 0
v -0.2 0.5 0
v -0.2 1 0
v -0.2 1.1 0
v -0.1 0.4 0
v -0.1 0.5 0
v -0.1 0.8 0
v -0.1 1 0
v -0.1 1.1 0
v -0.1 1.2 0
v 0 0.2 0
v 0 0.4 0
v 0 0.5 0
v 0 0.8 0
v 0.2 0.2 0
v 0.2 0.3 0
v 0.2 0.4 0
v 0.2 0.5 0
v 0.2 0.7 0
v 0.2 0.8 0
v 0.3 0.3 0
v 0.3 0.4 0
v 0.3 0.5 0
v 0.3 0.7 0
v 0.3 0.8 0
v 0.3 1 0
v 0.3 1.1 0
v 0.3 1.2 0
v 0.4 0.2 0
v 0.4 0.3 0
v 0.4 0.5 0
v 0.4 0.8 0
v 0.4 0.9 0
v 0.4 1 0
v 0.4 1.1 0
v 0.5 0.2 0
v 0.5 0.3 0
v 0.5 0.4 0
v 0.5 0.8 0
v 0.5 0.9 0
v 0.5 1 0
v 0.5 1.1 0
v 0.6 0.3 0
v 0.6 0.4 0
v 0.6 0.5 0
v 0.6 1 0
v 0.6 1.1 0
v 0.7 0.2 0
v 0.7 0.3 0
v 0.7 0.5 0
v 0.7 0.7 0
v 0.7 0.8 0
v 0.7 1 0
v 0.7 1.2 0
v 0.8 0.5 0
v 0.8 0.7 0
v 0.8 0.8 0
v 0.9 0.2 0
v 0.9 1.3 0
v 1 0.1 0
v 1 1.4 0
v 1.1 0 0
v 1.1 1.5 0
v -0.9 0 -0.2
v -0.9 1.5 -0.2
v 1.1 0 -0.2
v 1.1 1.5 -0.2
v -0.9 0 0
v 1.1 0 0
v -0.9 0 -0.1
v 1.1 0 -0.1
v -0.9 0 -0.2
v 1.1 0 -0.2
v -0.8 0.1 0.1
v 1 0.1 0.1
v -0.8 0.1 0
v 1 0.1 0
v -0.7 1.3 0.1
v 0.9 1.3 0.1
v -0.7 1.3 0
v 0.9 1.3 0
v -0.7 0.2 0.1
v 0.9 0.2 0.1
v -0.7 0.2 0
v -0.5 0.2 0
v -0.3 0.2 0
v -0.2 0.2 0
v 0 0.2 0
v 0.2 0.2 0
v 0.4 0.2 0
v 0.5 0.2 0
v 0.7 0.2 0
v 0.9 0.2 0
v -0.8 1.4 0.1
v 1 1.4 0.1
v -0.8 1.4 0
v 1 1.4 0
v -0.9 1.5 0
v 1.1 1.5 0
v -0.9 1.5 -0.1
v 1.1 1.5 -0.1
v -0.9 1.5 -0.2
v 1.1 1.5 -0.2

# faces
f 4/8/1 2/8/1 1/8/1
f 5/4/1 3/4/1 2/4/1
f 5/8/1 2/8/1 4/8/1
f 6/4/1 3/4/1 5/4/1
f 9/8/1 8/8/1 7/8/1
f 10/8/1 8/8/1 9/8/1
f 13/8/1 12/8/1 11/8/1
f 14/8/1 12/8/1 13/8/1
f 15/8/2 16/8/2 17/8/2
f 17/8/2 16/8/2 18/8/2
f 19/8/2 20/8/2 21/8/2
f 21/8/2 20/8/2 22/8/2
f 23/8/2 24/8/2 26/8/2
f 24/4/2 25/4/2 27/4/2
f 26/8/2 24/8/2 27/8/2
f 27/4/2 25/4/2 28/4/2
f 31/8/3 30/8/3 29/8/3
f 32/8/3 30/8/3 31/8/3
f 33/8/3 31/8/3 29/8/3
f 34/8/3 30/8/3 32/8/3
f 35/8/3 33/8/3 29/8/3
f 35/8/3 34/8/3 33/8/3
f 36/8/3 30/8/3 34/8/3
f 36/8/3 34/8/3 35/8/3
f 39/8/3 38/8/3 37/8/3
f 40/8/3 38/8/3 39/8/3
f 43/6/3 42/6/3 41/6/3
f 44/6/3 42/6/3 43/6/3
f 45/6/3 43/6/3 41/6/3
f 46/10/3 44/10/3 43/10/3
f 46/6/3 43/6/3 45/6/3
f 47/6/3 42/6/3 44/6/3
f 47/10/3 44/10/3 46/10/3
f 48/6/3 42/6/3 47/6/3
f 49/10/3 46/10/3 45/10/3
f 49/10/3 47/10/3 46/10/3
f 49/10/3 48/10/3 47/10/3
f 50/10/3 48/10/3 49/10/3
f 51/10/3 48/10/3 50/10/3
f 52/10/3 48/10/3 51/10/3
f 53/10/3 49/10/3 45/10/3
f 54/6/3 50/6/3 49/6/3
f 54/10/3 49/10/3 53/10/3
f 55/10/3 51/10/3 50/10/3
f 55/8/3 52/8/3 51/8/3
f 56/10/3 48/10/3 52/10/3
f 56/8/3 52/8/3 55/8/3
f 57/6/3 54/6/3 53/6/3
f 58/10/3 55/10/3 50/10/3
f 58/6/3 54/6/3 57/6/3
f 58/6/3 50/6/3 54/6/3
f 58/10/3 56/10/3 55/10/3
f 59/10/3 56/10/3 58/10/3
f 60/10/3 48/10/3 56/10/3
f 60/10/3 56/10/3 59/10/3
f 61/10/3 59/10/3 58/10/3
f 61/10/3 58/10/3 57/10/3
f 62/10/3 59/10/3 61/10/3
f 63/10/3 59/10/3 62/10/3
f 64/8/3 60/8/3 59/8/3
f 64/10/3 59/10/3 63/10/3
f 65/10/3 48/10/3 60/10/3
f 65/8/3 60/8/3 64/8/3
f 66/6/3 42/6/3 48/6/3
f 66/10/3 48/10/3 65/10/3
f 67/10/3 61/10/3 57/10/3
f 68/6/3 62/6/3 61/6/3
f 68/10/3 61/10/3 67/10/3
f 69/10/3 63/10/3 62/10/3
f 69/6/3 62/6/3 68/6/3
f 70/6/3 65/6/3 64/6/3
f 70/10/3 63/10/3 69/10/3
f 70/6/3 64/6/3 63/6/3
f 70/6/3 66/6/3 65/6/3
f 71/6/3 69/6/3 68/6/3
f 71/6/3 68/6/3 67/6/3
f 71/6/3 70/6/3 69/6/3
f 72/6/3 70/6/3 71/6/3
f 73/6/3 70/6/3 72/6/3
f 74/6/3 70/6/3 73/6/3
f 75/6/3 70/6/3 74/6/3
f 76/6/3 66/6/3 70/6/3
f 76/6/3 70/6/3 75/6/3
f 77/9/3 72/9/3 71/9/3
f 77/2/3 73/2/3 72/2/3
f 78/6/3 74/6/3 73/6/3
f 78/2/3 73/2/3 77/2/3
f 79/1/3 75/1/3 74/1/3
f 79/6/3 74/6/3 78/6/3
f 80/2/3 76/2/3 75/2/3
f 80/1/3 75/1/3 79/1/3
f 81/6/3 66/6/3 76/6/3
f 81/2/3 76/2/3 80/2/3
f 82/6/3 66/6/3 81/6/3
f 83/6/3 66/6/3 82/6/3
f 84/6/3 42/6/3 66/6/3
f 84/6/3 66/6/3 83/6/3
f 85/9/3 77/9/3 71/9/3
f 86/7/3 78/7/3 77/7/3
f 86/9/3 77/9/3 85/9/3
f 86/7/3 79/7/3 78/7/3
f 87/2/3 80/2/3 79/2/3
f 87/7/3 79/7/3 86/7/3
f 87/2/3 81/2/3 80/2/3
f 88/1/3 82/1/3 81/1/3
f 88/2/3 81/2/3 87/2/3
f 89/1/3 82/1/3 88/1/3
f 90/10/3 83/10/3 82/10/3
f 90/1/3 82/1/3 89/1/3
f 91/5/3 84/5/3 83/5/3
f 91/10/3 83/10/3 90/10/3
f 92/6/3 86/6/3 85/6/3
f 92/6/3 87/6/3 86/6/3
f 93/6/3 87/6/3 92/6/3
f 94/6/3 87/6/3 93/6/3
f 95/3/3 89/3/3 88/3/3
f 95/2/3 88/2/3 87/2/3
f 96/1/3 90/1/3 89/1/3
f 96/3/3 89/3/3 95/3/3
f 96/1/3 91/1/3 90/1/3
f 97/1/3 91/1/3 96/1/3
f 98/5/3 84/5/3 91/5/3
f 98/1/3 91/1/3 97/1/3
f 99/9/3 93/9/3 92/9/3
f 99/2/3 94/2/3 93/2/3
f 100/6/3 87/6/3 94/6/3
f 100/2/3 94/2/3 99/2/3
f 101/2/3 95/2/3 87/2/3
f 101/6/3 87/6/3 100/6/3
f 102/1/3 97/1/3 96/1/3
f 102/10/3 98/10/3 97/10/3
f 102/1/3 96/1/3 95/1/3
f 103/5/3 84/5/3 98/5/3
f 103/10/3 98/10/3 102/10/3
f 104/9/3 99/9/3 92/9/3
f 105/7/3 100/7/3 99/7/3
f 105/9/3 99/9/3 104/9/3
f 105/7/3 101/7/3 100/7/3
f 106/2/3 95/2/3 101/2/3
f 106/7/3 101/7/3 105/7/3
f 107/2/3 95/2/3 106/2/3
f 108/1/3 102/1/3 95/1/3
f 108/2/3 95/2/3 107/2/3
f 109/5/3 103/5/3 102/5/3
f 109/1/3 102/1/3 108/1/3
f 110/5/3 84/5/3 103/5/3
f 110/5/3 103/5/3 109/5/3
f 110/6/3 42/6/3 84/6/3
f 111/6/3 105/6/3 104/6/3
f 111/6/3 106/6/3 105/6/3
f 111/1/3 107/1/3 106/1/3
f 112/2/3 108/2/3 107/2/3
f 112/1/3 107/1/3 111/1/3
f 113/6/3 109/6/3 108/6/3
f 113/2/3 108/2/3 112/2/3
f 113/6/3 110/6/3 109/6/3
f 114/6/3 112/6/3 111/6/3
f 114/6/3 111/6/3 104/6/3
f 114/6/3 113/6/3 112/6/3
f 115/6/3 110/6/3 113/6/3
f 115/6/3 113/6/3 114/6/3
f 115/6/3 42/6/3 110/6/3
f 116/8/3 39/8/3 37/8/3
f 117/8/3 38/8/3 40/8/3
f 118/8/3 116/8/3 37/8/3
f 118/8/3 117/8/3 116/8/3
f 119/8/3 38/8/3 117/8/3
f 119/8/3 117/8/3 118/8/3
f 120/4/4 121/4/4 122/4/4
f 122/4/4 121/4/4 123/4/4
f 126/8/5 125/8/5 124/8/5
f 127/8/5 125/8/5 126/8/5
f 128/4/5 127/4/5 126/4/5
f 129/4/5 127/4/5 128/4/5
f 132/8/5 131/8/5 130/8/5
f 133/8/5 131/8/5 132/8/5
f 136/8/5 135/8/5 134/8/5
f 137/8/5 135/8/5 136/8/5
f 138/8/6 139/8/6 140/8/6
f 140/8/6 139/8/6 141/8/6
f 141/8/6 139/8/6 142/8/6
f 142/8/6 139/8/6 143/8/6
f 143/8/6 139/8/6 144/8/6
f 144/8/6 139/8/6 145/8/6
f 145/8/6 139/8/6 146/8/6
f 146/8/6 139/8/6 147/8/6
f 147/8/6 139/8/6 148/8/6
f 148/8/6 139/8/6 149/8/6
f 150/8/6 151/8/6 152/8/6
f 152/8/6 151/8/6 153/8/6
f 154/8/6 155/8/6 156/8/6
f 156/8/6 155/8/6 157/8/6
f 156/4/6 157/4/6 158/4/6
f 158/4/6 157/4/6 159/4/6
